<?xml version="1.0" encoding="utf-8"?>
<!-- Generator: Adobe Illustrator 25.0.0, SVG Export Plug-In . SVG Version: 6.00 Build 0)  -->
<svg version="1.1" id="Calque_1" xmlns="http://www.w3.org/2000/svg" xmlns:xlink="http://www.w3.org/1999/xlink" x="0px" y="0px"
	 viewBox="0 0 342.2 496.8" style="enable-background:new 0 0 342.2 496.8;" xml:space="preserve">
<style type="text/css">
	.st0{fill:#F7F5E8;}
	.st1{fill:#89181A;}
	.st2{clip-path:url(#SVGID_2_);}
	.st3{fill:none;}
	.st4{fill:#671318;}
</style>
<g>
	<g>
		<path class="st0" d="M69.8,3.8h268.4v423.7c0,35.9-29.1,65.1-65.1,65.1H69.8c-35.9,0-65.1-29.1-65.1-65.1V68.9
			C4.7,33,33.9,3.8,69.8,3.8z"/>
		<path class="st1" d="M69.8,3.4c22.4,0,44.7-0.1,67.1-0.3l16.8-0.2l16.8-0.2L204,2.1l67.1-1.2l33.5-0.5L338.2,0l3.8,0l0,3.8
			c0.4,53.8,0.2,107.7-0.5,161.5c-0.7,53.8-1.7,107.7-1.8,161.5l-0.1,40.4l0.1,40.4l0.1,20.2c0,3.5-0.3,6.9-0.8,10.3
			c-0.5,3.4-1.3,6.8-2.3,10.1c-4.1,13.2-12.5,25-23.6,33.4c-11.1,8.4-24.9,13.2-38.9,13.5l-40.4,0.5l-40.4,0.4l-40.4,0.3l-80.8,0.4
			l-2.5,0l-2.7-0.1c-0.9,0-1.8-0.1-2.7-0.2c-0.9-0.1-1.8-0.1-2.7-0.2c-3.6-0.4-7.1-1.1-10.6-2c-3.5-0.9-6.9-2.2-10.1-3.7
			s-6.5-3.2-9.4-5.2c-12-7.9-21.5-19.6-26.7-33.1c-2.6-6.7-4.1-13.9-4.6-21.1C0,427.6,0,424.3,0,421l0-10.1l0-40.4l0.3-80.8
			c0-13.5,0.2-26.9,0.3-40.4C0.6,235.9,0.9,222.4,1,209c0.1-13.5,0.4-26.9,0.7-40.4l0.7-40.4l0.7-40.4c0.1-6.7,0.2-13.4,0.3-20.2
			c0.1-3.4,0.5-6.8,1.1-10.2c0.3-1.7,0.7-3.3,1.1-5c0.5-1.6,1-3.3,1.5-4.9C9.6,41.1,12.9,35,17,29.6c4.1-5.4,9.1-10.2,14.6-14.1
			C42.7,7.6,56.2,3.3,69.8,3.4z M69.8,4.3c-13.4,0-26.7,4.4-37.5,12.2c-5.4,3.9-10.1,8.7-14.1,14c-3.9,5.4-7,11.3-9.1,17.7
			c-1.1,3.1-1.8,6.4-2.3,9.6C6.3,61.1,6,64.4,6,67.7c0,6.7,0.2,13.5,0.3,20.2l0.7,40.4l0.7,40.4C8,182.1,8.3,195.5,8.5,209
			c0.2,13.5,0.4,26.9,0.5,40.4c0.1,13.5,0.3,26.9,0.3,40.4l0.3,80.8l0,40.4l0,10.1c0,3.4,0,6.8,0.1,9.8c0.2,3.1,0.6,6.2,1.2,9.3
			c0.6,3.1,1.5,6.1,2.6,9c4.4,11.7,12.5,22,23,29c2.6,1.8,5.4,3.3,8.2,4.6c2.8,1.3,5.8,2.4,8.8,3.3c3,0.9,6.1,1.5,9.2,1.9
			c0.8,0.1,1.6,0.2,2.3,0.2s1.6,0.2,2.4,0.2l2.4,0.1l2.5,0l80.8,0.4l40.4,0.3l40.4,0.4l40.3,0.5c12.9,0,25.9-4.2,36.4-11.8
			c10.6-7.6,18.7-18.6,22.9-31c2.1-6.2,3.2-12.8,3.3-19.3l0.1-20.2l0.1-40.4l-0.1-40.4c-0.2-53.8-1.1-107.7-1.8-161.5
			c-0.7-53.8-1-107.7-0.5-161.5l3.8,3.8l-33.5-0.4l-33.5-0.5L204,5.6L170.4,5l-16.8-0.2l-16.8-0.2C114.5,4.4,92.2,4.3,69.8,4.3z"/>
	</g>
	<g>
		<g>
			<defs>
				<path id="SVGID_1_" d="M4.7,68.9C4.7,33,33.9,3.8,69.8,3.8h268.4v423.7c0,35.9-33.8,60-65.7,61.3L6.8,485.4L4.7,68.9"/>
			</defs>
			<clipPath id="SVGID_2_">
				<use xlink:href="#SVGID_1_"  style="overflow:visible;"/>
			</clipPath>
			<g class="st2">
				<g>
					
						<rect x="44.1" y="60.8" transform="matrix(1 -4.210707e-03 4.210707e-03 1 -1.15 0.2067)" class="st1" width="8.9" height="424.9"/>
					<g>
						<circle class="st1" cx="47.6" cy="60.8" r="31.1"/>
						<path class="st1" d="M47.6,92.9c-17.7,0-32.1-14.4-32.1-32.1s14.4-32.1,32.1-32.1s32.1,14.4,32.1,32.1S65.3,92.9,47.6,92.9z
							 M47.6,30.8c-16.5,0-30,13.5-30,30s13.5,30,30,30s30-13.5,30-30S64.2,30.8,47.6,30.8z"/>
					</g>
				</g>
				<g>
					<g>
						<polygon class="st0" points="99,190.7 99.1,114.9 51.1,152.8 						"/>
						<path class="st1" d="M99,193.7c-0.6,0-1.3-0.2-1.8-0.6l-47.9-38c-0.7-0.6-1.1-1.4-1.1-2.3s0.4-1.7,1.1-2.3l48-37.9
							c0.9-0.7,2.1-0.8,3.1-0.3c1,0.5,1.7,1.5,1.6,2.6l-0.1,75.9c0,1.1-0.6,2.1-1.7,2.6C99.9,193.6,99.4,193.7,99,193.7z
							 M55.8,152.8l40.3,31.9l0.1-63.8L55.8,152.8z"/>
					</g>
					<g>
						<path class="st0" d="M99,190.7c40.9,14.1,67.3,11.1,83.3,9.3c44-4.7,55.2-19,93.2-19c38,0.1,32.2,19.3,42.5,17.5
							c10.3-1.8-8.5-26.9-6.6-45.6c-1.8-18.8,17-43.9,6.7-45.6c-10.3-1.8-4.5,17.4-42.5,17.4s-36.7-9.6-92.2-22
							c-13.9-3.1-45.4-11.2-84.3,12L99,190.7z"/>
						<path class="st1" d="M159,204.5c-15.4,0-35.4-2.2-61-11c-1.2-0.4-2-1.5-2-2.8l0.1-75.9c0-1,0.5-2,1.4-2.5
							c38.8-23.1,70.1-16.1,85.2-12.7l1.3,0.3c23.8,5.3,37,10,47.7,13.9c14,5,22.5,8,43.8,8c23.1,0,28.8-7.3,32.6-12.1
							c2.5-3.1,5-6.3,10.4-5.4c2.6,0.5,3.9,1.9,4.6,3c2.3,4,0.1,10.3-3.1,18.9c-2.9,8.1-6.6,18.1-5.8,26.3c0,0.2,0,0.4,0,0.6
							c-0.8,8.2,2.8,18.2,5.8,26.3c3.1,8.7,5.4,14.9,3,18.9c-0.7,1.1-2,2.6-4.6,3c-5.4,0.9-7.9-2.3-10.4-5.4
							c-3.8-4.8-9.6-12.1-32.6-12.1c-0.1,0-0.2,0-0.3,0c-19.7,0-31.8,3.9-45.9,8.4c-12.2,3.9-26,8.3-46.8,10.6l-0.6,0.1
							C176,203.7,168.4,204.5,159,204.5z M101.9,188.6c38.7,13,64.2,10.2,79.5,8.6l0.6-0.1c20.2-2.2,33.1-6.3,45.6-10.3
							c13.9-4.5,27.1-8.7,47.6-8.7c0.1,0,0.2,0,0.3,0c25.9,0,33,9,37.2,14.3c2.4,3,3,3.6,4.8,3.2c0.3,0,0.5-0.1,0.5-0.2
							c1-1.7-1.6-8.8-3.5-14c-3.1-8.6-6.9-19.2-6.1-28.6c-0.8-9.4,3-20,6.1-28.6c1.9-5.2,4.5-12.3,3.5-14c0-0.1-0.2-0.1-0.5-0.2
							c-1.8-0.3-2.4,0.2-4.8,3.2c-4.2,5.3-11.3,14.3-37.2,14.3c-22.4,0-31.7-3.3-45.8-8.4c-10.5-3.8-23.6-8.4-47-13.7l-1.3-0.3
							c-14.1-3.2-43.4-9.8-79.5,11.1L101.9,188.6z"/>
					</g>
					<g>
						<g>
							<circle class="st1" cx="136.2" cy="137.4" r="25.1"/>
							<path class="st1" d="M136.2,163.3c-14.2,0-25.8-11.6-25.8-25.8s11.6-25.8,25.8-25.8s25.8,11.6,25.8,25.8
								S150.4,163.3,136.2,163.3z M136.2,113.1c-13.4,0-24.3,10.9-24.3,24.3s10.9,24.3,24.3,24.3s24.3-10.9,24.3-24.3
								S149.6,113.1,136.2,113.1z"/>
						</g>
						<g>
							<circle class="st0" cx="136.2" cy="137.4" r="5.7"/>
							<path class="st0" d="M136.2,144.6c-4,0-7.2-3.2-7.2-7.2c0-4,3.2-7.2,7.2-7.2s7.2,3.2,7.2,7.2
								C143.4,141.4,140.2,144.6,136.2,144.6z M136.2,133.2c-2.3,0-4.2,1.9-4.2,4.2s1.9,4.2,4.2,4.2s4.2-1.9,4.2-4.2
								S138.5,133.2,136.2,133.2z"/>
						</g>
					</g>
					<g>
						<line class="st3" x1="310.5" y1="139.3" x2="274" y2="145.2"/>
						<path class="st1" d="M311,142.2l-36.9,2.9l36-8.7c1.6-0.4,3.2,0.6,3.5,2.2c0.4,1.6-0.6,3.2-2.2,3.5
							C311.3,142.2,311.1,142.2,311,142.2z"/>
					</g>
					<g>
						<line class="st3" x1="313.2" y1="169.5" x2="273.6" y2="157.1"/>
						<path class="st1" d="M312.3,172.3l-38.7-15.2l40.5,9.6c1.6,0.4,2.5,2,2.2,3.5s-2,2.6-3.5,2.2
							C312.6,172.4,312.4,172.4,312.3,172.3z"/>
					</g>
					<path class="st1" d="M157.8,204.3c-0.6,0-1.1-0.2-1.6-0.5c-1.3-0.9-1.7-2.7-0.8-4.1c16-24.2,20.9-48.1,14.7-70.9
						c-4.7-17.1-14.2-27.2-14.3-27.3c-1.1-1.2-1.1-3,0.1-4.1c1.2-1.1,3-1.1,4.1,0.1c0.4,0.4,10.6,11.1,15.7,29.5
						c4.7,16.9,5.9,43.9-15.4,76C159.7,203.9,158.7,204.3,157.8,204.3z"/>
					<path class="st1" d="M182.2,202.9c-0.5,0-1.1-0.2-1.6-0.5c-1.4-0.9-1.8-2.7-0.9-4c29.5-45.9,11.9-79.9,2.9-92.4
						c-0.9-1.3-0.6-3.1,0.7-4.1c1.3-0.9,3.1-0.6,4.1,0.7c9.7,13.5,28.7,50.1-2.7,99C184.1,202.4,183.1,202.9,182.2,202.9z"/>
					<path class="st1" d="M208.7,197.7c-0.5,0-1-0.1-1.5-0.4c-1.4-0.8-1.9-2.6-1.1-4c21.8-37.6,11.8-66.8,3.9-80.9
						c-0.8-1.4-0.3-3.2,1.1-4c1.4-0.8,3.2-0.3,4,1.1c8.5,15.2,19.3,46.6-4,86.7C210.7,197.2,209.7,197.7,208.7,197.7z"/>
					<path class="st1" d="M236.2,190.1c-0.4,0-0.9-0.1-1.3-0.3c-1.5-0.7-2.1-2.5-1.4-3.9c13.6-28,9.7-50.7,4.1-64.9
						c-0.6-1.5,0.1-3.2,1.6-3.8c1.5-0.6,3.2,0.1,3.8,1.6c6.1,15.2,10.3,39.7-4.2,69.6C238.3,189.5,237.3,190.1,236.2,190.1z"/>
					<path class="st1" d="M262.2,184.5c-0.4,0-0.8-0.1-1.1-0.2c-1.5-0.6-2.2-2.3-1.6-3.8c7.8-18.8,8.9-37.2,3.3-54.7
						c-0.5-1.5,0.3-3.2,1.9-3.7c1.5-0.5,3.2,0.3,3.7,1.9c6.1,18.9,4.9,38.6-3.4,58.7C264.4,183.8,263.3,184.5,262.2,184.5z"/>
					<path class="st1" d="M191.7,119.6c-0.1,0-0.2,0-0.3,0l-23.5-2.5c-1.6-0.2-2.8-1.6-2.6-3.2c0.2-1.6,1.6-2.8,3.2-2.6l23.5,2.5
						c1.6,0.2,2.8,1.6,2.6,3.2C194.5,118.5,193.2,119.6,191.7,119.6z"/>
					<path class="st1" d="M199.1,153.3h-23c-1.6,0-2.9-1.3-2.9-2.9s1.3-2.9,2.9-2.9h23c1.6,0,2.9,1.3,2.9,2.9
						S200.7,153.3,199.1,153.3z"/>
					<path class="st1" d="M196.1,135.5c0,0-0.1,0-0.1,0l-21.6-1c-1.6-0.1-2.9-1.4-2.8-3.1c0.1-1.6,1.4-2.9,3.1-2.8l21.6,1
						c1.6,0.1,2.9,1.4,2.8,3.1C198.9,134.3,197.6,135.5,196.1,135.5z"/>
					<path class="st1" d="M165.9,190.5c-1.5,0-2.8-1.2-2.9-2.7c-0.1-1.6,1.1-3,2.7-3.1l22.6-1.4c1.6-0.1,3,1.1,3.1,2.7
						c0.1,1.6-1.1,3-2.7,3.1l-22.6,1.4C166.1,190.5,166,190.5,165.9,190.5z"/>
					<path class="st1" d="M172.1,173.1c-1.6,0-2.8-1.2-2.9-2.8c-0.1-1.6,1.2-3,2.8-3.1l21.6-1c1.6-0.1,3,1.2,3.1,2.8
						c0.1,1.6-1.2,3-2.8,3.1l-21.6,1C172.2,173.1,172.2,173.1,172.1,173.1z"/>
					<path class="st1" d="M218.9,130c-0.1,0-0.3,0-0.4,0l-23.8-3.5c-1.6-0.2-2.7-1.7-2.5-3.3c0.2-1.6,1.7-2.7,3.3-2.5l23.8,3.5
						c1.6,0.2,2.7,1.7,2.5,3.3C221.6,129,220.3,130,218.9,130z"/>
					<path class="st1" d="M221.7,147.5c-0.1,0-0.2,0-0.4,0l-22.7-2.9c-1.6-0.2-2.7-1.7-2.5-3.3c0.2-1.6,1.7-2.7,3.3-2.5l22.7,2.9
						c1.6,0.2,2.7,1.7,2.5,3.3C224.4,146.5,223.1,147.5,221.7,147.5z"/>
					<path class="st1" d="M194,183.5c-1.4,0-2.7-1-2.9-2.5c-0.2-1.6,0.9-3.1,2.5-3.3l22.9-3.4c1.6-0.2,3.1,0.9,3.3,2.5
						c0.2,1.6-0.9,3.1-2.5,3.3l-22.9,3.4C194.3,183.4,194.1,183.5,194,183.5z"/>
					<path class="st1" d="M198.6,166c-1.4,0-2.7-1.1-2.9-2.5c-0.2-1.6,0.9-3.1,2.5-3.3l21.8-2.9c1.6-0.2,3.1,0.9,3.3,2.5
						c0.2,1.6-0.9,3.1-2.5,3.3L199,166C198.9,166,198.8,166,198.6,166z"/>
					<path class="st1" d="M243.2,137.6c-0.2,0-0.3,0-0.5,0l-22.5-3.7c-1.6-0.3-2.7-1.8-2.4-3.4c0.3-1.6,1.8-2.7,3.4-2.4l22.5,3.7
						c1.6,0.3,2.7,1.8,2.4,3.4C245.9,136.5,244.6,137.6,243.2,137.6z"/>
					<path class="st1" d="M214.8,185c-1.3,0-2.5-0.9-2.8-2.3c-0.4-1.6,0.6-3.1,2.2-3.5l24.7-5.7c1.6-0.4,3.1,0.6,3.5,2.2
						c0.4,1.6-0.6,3.1-2.2,3.5l-24.7,5.7C215.3,185,215.1,185,214.8,185z"/>
					<path class="st1" d="M244.4,152.5c0,0-0.1,0-0.1,0l-20.3-1c-1.6-0.1-2.9-1.5-2.8-3.1c0.1-1.6,1.4-2.9,3.1-2.8l20.3,1
						c1.6,0.1,2.9,1.5,2.8,3.1C247.2,151.3,245.9,152.5,244.4,152.5z"/>
					<path class="st1" d="M221.1,168.8c-1.5,0-2.7-1.1-2.9-2.6c-0.2-1.6,0.9-3.1,2.5-3.3l23-2.9c1.6-0.2,3.1,0.9,3.3,2.5
						c0.2,1.6-0.9,3.1-2.5,3.3l-23,2.9C221.3,168.8,221.2,168.8,221.1,168.8z"/>
					<path class="st1" d="M267.9,142.4c-0.1,0-0.2,0-0.2,0l-22-1.8c-1.6-0.1-2.8-1.6-2.7-3.2c0.1-1.6,1.5-2.8,3.2-2.7l22,1.8
						c1.6,0.1,2.8,1.6,2.7,3.2C270.7,141.3,269.4,142.4,267.9,142.4z"/>
					<path class="st1" d="M242.4,175c-1.4,0-2.6-1-2.9-2.4c-0.3-1.6,0.8-3.1,2.4-3.4l24.3-4.4c1.6-0.3,3.1,0.8,3.4,2.4
						c0.3,1.6-0.8,3.1-2.4,3.4l-24.3,4.4C242.7,175,242.5,175,242.4,175z"/>
					<path class="st1" d="M267.9,156.2h-22.3c-1.6,0-2.9-1.3-2.9-2.9s1.3-2.9,2.9-2.9h22.3c1.6,0,2.9,1.3,2.9,2.9
						S269.5,156.2,267.9,156.2z"/>
				</g>
				<g>
					<g>
						<polygon class="st1" points="99,310.9 99.1,235 51.1,272.9 						"/>
						<path class="st4" d="M99,313.8c-0.6,0-1.3-0.2-1.8-0.6l-47.9-38c-0.7-0.6-1.1-1.4-1.1-2.3s0.4-1.7,1.1-2.3l48-37.9
							c0.9-0.7,2.1-0.8,3.1-0.3c1,0.5,1.7,1.5,1.6,2.6l-0.1,75.9c0,1.1-0.6,2.1-1.7,2.6C99.9,313.7,99.4,313.8,99,313.8z
							 M55.8,272.9l40.3,31.9l0.1-63.8L55.8,272.9z"/>
					</g>
					<g>
						<path class="st1" d="M99,310.9c40.9,14.1,67.3,11,83.3,9.3c44-4.7,55.2-19,93.2-19s32.2,19.3,42.5,17.5
							c10.3-1.8-8.5-26.9-6.6-45.6c-1.8-18.8,17-43.9,6.7-45.6s-4.5,17.4-42.5,17.4s-36.7-9.6-92.2-22c-13.9-3.1-45.4-11.1-84.3,12
							L99,310.9z"/>
						<path class="st4" d="M159,324.7c-15.4,0-35.4-2.2-61-11c-1.2-0.4-2-1.5-2-2.8l0.1-75.9c0-1,0.5-2,1.4-2.5
							c38.8-23.1,70.1-16.1,85.2-12.7l1.3,0.3c23.8,5.3,37,10,47.7,13.9c14,5,22.5,8,43.8,8c23.1,0,28.8-7.3,32.6-12.1
							c2.5-3.1,5-6.3,10.4-5.4c2.6,0.5,3.9,1.9,4.6,3c2.3,4,0.1,10.3-3.1,18.9c-2.9,8.1-6.6,18.1-5.8,26.3c0,0.2,0,0.4,0,0.6
							c-0.8,8.2,2.8,18.2,5.8,26.3c3.1,8.7,5.4,14.9,3,18.9c-0.7,1.1-2,2.6-4.6,3c-5.4,0.9-7.9-2.3-10.4-5.4
							c-3.8-4.8-9.6-12.1-32.6-12.1c-0.1,0-0.2,0-0.3,0c-19.7,0-31.8,3.9-45.9,8.4c-12.2,3.9-26,8.3-46.8,10.6l-0.6,0.1
							C176,323.8,168.4,324.7,159,324.7z M101.9,308.8c38.7,13,64.2,10.2,79.5,8.6l0.6-0.1c20.2-2.2,33.1-6.3,45.6-10.3
							c14-4.5,27.2-8.8,47.9-8.7c25.9,0,33,9,37.2,14.3c2.4,3,3,3.5,4.8,3.2c0.3,0,0.5-0.1,0.5-0.2c1-1.7-1.6-8.8-3.5-14
							c-3.1-8.6-6.9-19.2-6.1-28.6c-0.8-9.4,3-20,6.1-28.6c1.9-5.2,4.5-12.3,3.5-14c0-0.1-0.2-0.1-0.5-0.2c-1.8-0.3-2.4,0.2-4.8,3.2
							c-4.2,5.3-11.3,14.3-37.2,14.3c-22.4,0-31.7-3.3-45.8-8.4c-10.5-3.8-23.6-8.4-47-13.7l-1.3-0.3c-14.1-3.2-43.4-9.8-79.5,11.1
							L101.9,308.8z"/>
					</g>
					<g>
						<g>
							<circle class="st0" cx="136.2" cy="257.6" r="25.1"/>
							<path class="st1" d="M136.2,285.6c-15.4,0-28-12.6-28-28c0-15.4,12.6-28,28-28s28,12.6,28,28
								C164.2,273,151.7,285.6,136.2,285.6z M136.2,235.4c-12.2,0-22.2,9.9-22.2,22.2c0,12.2,9.9,22.2,22.2,22.2s22.2-9.9,22.2-22.2
								C158.4,245.4,148.4,235.4,136.2,235.4z"/>
						</g>
						<g>
							<circle class="st1" cx="136.2" cy="257.6" r="5.7"/>
							<path class="st1" d="M136.2,266.2c-4.8,0-8.6-3.9-8.6-8.6s3.9-8.6,8.6-8.6s8.6,3.9,8.6,8.6S141,266.2,136.2,266.2z
								 M136.2,254.8c-1.5,0-2.8,1.2-2.8,2.8c0,1.5,1.2,2.8,2.8,2.8s2.8-1.2,2.8-2.8C139,256.1,137.7,254.8,136.2,254.8z"/>
						</g>
					</g>
					<g>
						<line class="st3" x1="310.5" y1="259.5" x2="274" y2="265.3"/>
						<path class="st0" d="M311,262.4l-36.9,2.9l36-8.7c1.6-0.4,3.2,0.6,3.5,2.2s-0.6,3.2-2.2,3.5
							C311.3,262.4,311.1,262.4,311,262.4z"/>
					</g>
					<g>
						<line class="st3" x1="313.2" y1="289.7" x2="273.6" y2="277.3"/>
						<path class="st0" d="M312.3,292.5l-38.7-15.2l40.5,9.6c1.6,0.4,2.5,2,2.2,3.5c-0.4,1.6-2,2.6-3.5,2.2
							C312.6,292.6,312.4,292.5,312.3,292.5z"/>
					</g>
					<g>
						<path class="st0" d="M157.8,324.5c-0.6,0-1.1-0.2-1.6-0.5c-1.3-0.9-1.7-2.7-0.8-4.1c16-24.2,20.9-48.1,14.7-70.9
							c-4.7-17.1-14.2-27.2-14.3-27.3c-1.1-1.2-1.1-3,0.1-4.1c1.2-1.1,3-1.1,4.1,0.1c0.4,0.4,10.6,11.1,15.7,29.5
							c4.7,16.9,5.9,43.9-15.4,76C159.7,324,158.7,324.5,157.8,324.5z"/>
						<path class="st0" d="M182.2,323.1c-0.5,0-1.1-0.2-1.6-0.5c-1.4-0.9-1.8-2.7-0.9-4c29.5-45.9,11.9-79.9,2.9-92.4
							c-0.9-1.3-0.6-3.1,0.7-4.1c1.3-0.9,3.1-0.6,4.1,0.7c9.7,13.5,28.7,50.1-2.7,99C184.1,322.6,183.1,323.1,182.2,323.1z"/>
						<path class="st0" d="M208.7,317.9c-0.5,0-1-0.1-1.5-0.4c-1.4-0.8-1.9-2.6-1.1-4c21.8-37.6,11.8-66.8,3.9-80.9
							c-0.8-1.4-0.3-3.2,1.1-4c1.4-0.8,3.2-0.3,4,1.1c8.5,15.2,19.3,46.6-4,86.7C210.7,317.4,209.7,317.9,208.7,317.9z"/>
						<path class="st0" d="M236.2,310.3c-0.4,0-0.9-0.1-1.3-0.3c-1.5-0.7-2.1-2.5-1.4-3.9c13.6-28,9.7-50.7,4.1-64.9
							c-0.6-1.5,0.1-3.2,1.6-3.8c1.5-0.6,3.2,0.1,3.8,1.6c6.1,15.2,10.3,39.7-4.2,69.6C238.3,309.7,237.3,310.3,236.2,310.3z"/>
						<path class="st0" d="M262.2,304.6c-0.4,0-0.8-0.1-1.1-0.2c-1.5-0.6-2.2-2.3-1.6-3.8c7.8-18.8,8.9-37.2,3.3-54.7
							c-0.5-1.5,0.3-3.2,1.9-3.7c1.5-0.5,3.2,0.3,3.7,1.9c6.1,18.9,4.9,38.6-3.4,58.7C264.4,304,263.3,304.6,262.2,304.6z"/>
						<path class="st0" d="M191.7,239.8c-0.1,0-0.2,0-0.3,0l-23.5-2.5c-1.6-0.2-2.8-1.6-2.6-3.2c0.2-1.6,1.6-2.8,3.2-2.6l23.5,2.5
							c1.6,0.2,2.8,1.6,2.6,3.2C194.5,238.7,193.2,239.8,191.7,239.8z"/>
						<path class="st0" d="M199.1,273.5h-23c-1.6,0-2.9-1.3-2.9-2.9s1.3-2.9,2.9-2.9h23c1.6,0,2.9,1.3,2.9,2.9
							S200.7,273.5,199.1,273.5z"/>
						<path class="st0" d="M196.1,255.7c0,0-0.1,0-0.1,0l-21.6-1c-1.6-0.1-2.9-1.4-2.8-3.1c0.1-1.6,1.4-2.9,3.1-2.8l21.6,1
							c1.6,0.1,2.9,1.4,2.8,3.1C198.9,254.5,197.6,255.7,196.1,255.7z"/>
						<path class="st0" d="M165.9,310.7c-1.5,0-2.8-1.2-2.9-2.7c-0.1-1.6,1.1-3,2.7-3.1l22.6-1.4c1.6-0.1,3,1.1,3.1,2.7
							s-1.1,3-2.7,3.1l-22.6,1.4C166.1,310.7,166,310.7,165.9,310.7z"/>
						<path class="st0" d="M172.1,293.2c-1.6,0-2.8-1.2-2.9-2.8c-0.1-1.6,1.2-3,2.8-3.1l21.6-1c1.6-0.1,3,1.2,3.1,2.8
							s-1.2,3-2.8,3.1l-21.6,1C172.2,293.2,172.2,293.2,172.1,293.2z"/>
						<path class="st0" d="M218.9,250.2c-0.1,0-0.3,0-0.4,0l-23.8-3.5c-1.6-0.2-2.7-1.7-2.5-3.3s1.7-2.7,3.3-2.5l23.8,3.5
							c1.6,0.2,2.7,1.7,2.5,3.3C221.6,249.1,220.3,250.2,218.9,250.2z"/>
						<path class="st0" d="M221.7,267.7c-0.1,0-0.2,0-0.4,0l-22.7-2.9c-1.6-0.2-2.7-1.7-2.5-3.3c0.2-1.6,1.7-2.7,3.3-2.5l22.7,2.9
							c1.6,0.2,2.7,1.7,2.5,3.3C224.4,266.6,223.1,267.7,221.7,267.7z"/>
						<path class="st0" d="M194,303.6c-1.4,0-2.7-1-2.9-2.5c-0.2-1.6,0.9-3.1,2.5-3.3l22.9-3.4c1.6-0.2,3.1,0.9,3.3,2.5
							c0.2,1.6-0.9,3.1-2.5,3.3l-22.9,3.4C194.3,303.6,194.1,303.6,194,303.6z"/>
						<path class="st0" d="M198.6,286.1c-1.4,0-2.7-1.1-2.9-2.5c-0.2-1.6,0.9-3.1,2.5-3.3l21.8-2.9c1.6-0.2,3.1,0.9,3.3,2.5
							c0.2,1.6-0.9,3.1-2.5,3.3l-21.8,2.9C198.9,286.1,198.8,286.1,198.6,286.1z"/>
						<path class="st0" d="M243.2,257.7c-0.2,0-0.3,0-0.5,0l-22.5-3.7c-1.6-0.3-2.7-1.8-2.4-3.4c0.3-1.6,1.8-2.7,3.4-2.4l22.5,3.7
							c1.6,0.3,2.7,1.8,2.4,3.4C245.9,256.7,244.6,257.7,243.2,257.7z"/>
						<path class="st0" d="M214.8,305.2c-1.3,0-2.5-0.9-2.8-2.3c-0.4-1.6,0.6-3.1,2.2-3.5l24.7-5.7c1.6-0.4,3.1,0.6,3.5,2.2
							c0.4,1.6-0.6,3.1-2.2,3.5l-24.7,5.7C215.3,305.2,215.1,305.2,214.8,305.2z"/>
						<path class="st0" d="M244.4,272.7c0,0-0.1,0-0.1,0l-20.3-1c-1.6-0.1-2.9-1.5-2.8-3.1c0.1-1.6,1.4-2.9,3.1-2.8l20.3,1
							c1.6,0.1,2.9,1.5,2.8,3.1C247.2,271.4,245.9,272.7,244.4,272.7z"/>
						<path class="st0" d="M221.1,288.9c-1.5,0-2.7-1.1-2.9-2.6c-0.2-1.6,0.9-3.1,2.5-3.3l23-2.9c1.6-0.2,3.1,0.9,3.3,2.5
							c0.2,1.6-0.9,3.1-2.5,3.3l-23,2.9C221.3,288.9,221.2,288.9,221.1,288.9z"/>
						<path class="st0" d="M267.9,262.6c-0.1,0-0.2,0-0.2,0l-22-1.8c-1.6-0.1-2.8-1.6-2.7-3.2c0.1-1.6,1.5-2.8,3.2-2.7l22,1.8
							c1.6,0.1,2.8,1.6,2.7,3.2C270.7,261.4,269.4,262.6,267.9,262.6z"/>
						<path class="st0" d="M242.4,295.1c-1.4,0-2.6-1-2.9-2.4c-0.3-1.6,0.8-3.1,2.4-3.4l24.3-4.4c1.6-0.3,3.1,0.8,3.4,2.4
							s-0.8,3.1-2.4,3.4l-24.3,4.4C242.7,295.1,242.5,295.1,242.4,295.1z"/>
						<path class="st0" d="M267.9,276.3h-22.3c-1.6,0-2.9-1.3-2.9-2.9s1.3-2.9,2.9-2.9h22.3c1.6,0,2.9,1.3,2.9,2.9
							S269.5,276.3,267.9,276.3z"/>
					</g>
				</g>
				<g>
					<g>
						<path class="st0" d="M99,431c40.9,14.1,67.3,11,83.3,9.3c44-4.7,55.2-19,93.2-19s32.2,19.3,42.5,17.5
							c10.3-1.8-8.5-26.9-6.6-45.6c-1.8-18.8,17-43.9,6.7-45.6s-4.5,17.5-42.5,17.5s-36.7-9.6-92.2-22c-13.9-3.1-45.4-11.1-84.3,12
							L99,431z"/>
						<path class="st1" d="M159,444.8c-15.4,0-35.4-2.2-61-11c-1.2-0.4-2-1.5-2-2.8l0.1-75.9c0-1,0.5-2,1.4-2.5
							c38.8-23.1,70.1-16.1,85.2-12.7l1.3,0.3c23.8,5.3,37,10,47.7,13.9c14,5,22.5,8,43.8,8c23.1,0,28.8-7.3,32.6-12.1
							c2.5-3.1,5-6.3,10.4-5.4c2.6,0.5,3.9,1.9,4.6,3c2.3,4,0.1,10.3-3.1,18.9c-2.9,8.1-6.6,18.1-5.8,26.3c0,0.2,0,0.4,0,0.6
							c-0.8,8.2,2.8,18.2,5.8,26.3c3.1,8.7,5.4,14.9,3,18.9c-0.7,1.1-2,2.6-4.6,3c-5.4,0.9-7.9-2.3-10.4-5.4
							c-3.8-4.8-9.6-12.1-32.6-12.1c-0.1,0-0.2,0-0.3,0c-19.7,0-31.8,3.9-45.9,8.4c-12.2,3.9-26,8.3-46.8,10.6l-0.6,0.1
							C176,444,168.4,444.8,159,444.8z M101.9,429c38.7,13,64.2,10.2,79.5,8.6l0.6-0.1c20.2-2.2,33.1-6.3,45.6-10.3
							c13.9-4.5,27.1-8.7,47.7-8.7c0.1,0,0.2,0,0.3,0c25.9,0,33,9,37.2,14.3c2.4,3,3,3.5,4.8,3.2c0.3,0,0.5-0.1,0.5-0.2
							c1-1.7-1.6-8.8-3.5-14c-3.1-8.6-6.9-19.2-6.1-28.6c-0.8-9.4,3-20,6.1-28.6c1.9-5.2,4.5-12.3,3.5-14c0-0.1-0.2-0.1-0.5-0.2
							c-1.8-0.3-2.4,0.2-4.8,3.2c-4.2,5.3-11.3,14.3-37.2,14.3c-22.4,0-31.7-3.3-45.8-8.4c-10.5-3.8-23.6-8.4-47-13.7l-1.3-0.3
							c-14.1-3.2-43.4-9.8-79.5,11.1L101.9,429z"/>
					</g>
					<g>
						<path class="st1" d="M275.6,421.4c38,0.1,32.2,19.3,42.5,17.5c10.3-1.8-8.5-26.9-6.6-45.6c-1.8-18.8,17-43.9,6.7-45.6
							s-4.5,17.5-42.5,17.5l-10,0c4.6,14.1,6.3,33.6-3.4,56.7L275.6,421.4z"/>
						<path class="st1" d="M316.7,442c-4.2,0-6.4-2.8-8.6-5.5c-3.8-4.8-9.6-12.1-32.6-12.1l-13.3,0.4c-1,0-1.9-0.4-2.5-1.3
							c-0.6-0.8-0.7-1.9-0.3-2.8c7.8-18.8,8.9-37.2,3.3-54.7c-0.3-0.9-0.1-1.9,0.4-2.6c0.5-0.8,1.4-1.2,2.4-1.2l10,0
							c23.1,0,28.8-7.3,32.6-12.1c2.5-3.1,5-6.3,10.4-5.4c2.6,0.5,3.9,1.9,4.6,3c2.3,4,0.1,10.3-3.1,18.9
							c-2.9,8.1-6.6,18.1-5.8,26.3c0,0.2,0,0.4,0,0.6c-0.8,8.2,2.8,18.2,5.8,26.3c3.1,8.7,5.4,14.9,3,18.9c-0.7,1.1-2,2.6-4.6,3
							C317.9,441.9,317.3,442,316.7,442z M275.5,418.5C275.6,418.5,275.6,418.5,275.5,418.5c25.9,0,33,9,37.2,14.3
							c2.4,3,3,3.5,4.8,3.2c0.3,0,0.5-0.1,0.5-0.2c1-1.7-1.6-8.8-3.5-14c-3.1-8.6-6.9-19.2-6.1-28.6c-0.8-9.4,3-20,6.1-28.6
							c1.9-5.2,4.5-12.3,3.5-14c0-0.1-0.2-0.1-0.5-0.2c-1.8-0.3-2.4,0.2-4.8,3.2c-4.2,5.3-11.3,14.3-37.2,14.3l-6.1,0
							c4.4,16.4,3.4,33.4-2.9,50.7L275.5,418.5C275.5,418.5,275.5,418.5,275.5,418.5z"/>
					</g>
					<g>
						<polygon class="st1" points="99,431 99.1,355.2 51.1,393.1 						"/>
						<path class="st1" d="M99,434c-0.6,0-1.3-0.2-1.8-0.6l-47.9-38c-0.7-0.6-1.1-1.4-1.1-2.3c0-0.9,0.4-1.7,1.1-2.3l48-37.9
							c0.9-0.7,2.1-0.8,3.1-0.3c1,0.5,1.7,1.5,1.6,2.6l-0.1,75.9c0,1.1-0.6,2.1-1.7,2.6C99.9,433.9,99.4,434,99,434z M55.8,393.1
							L96.1,425l0.1-63.8L55.8,393.1z"/>
					</g>
					<g>
						<g>
							<circle class="st0" cx="136.2" cy="377.8" r="25.1"/>
							<path class="st1" d="M136.2,405.8c-15.4,0-28-12.6-28-28s12.6-28,28-28s28,12.6,28,28S151.7,405.8,136.2,405.8z M136.2,355.6
								c-12.2,0-22.2,9.9-22.2,22.2s9.9,22.2,22.2,22.2s22.2-9.9,22.2-22.2S148.4,355.6,136.2,355.6z"/>
						</g>
						<g>
							<circle class="st1" cx="136.2" cy="377.8" r="5.7"/>
							<path class="st1" d="M136.2,386.4c-4.8,0-8.6-3.9-8.6-8.6s3.9-8.6,8.6-8.6s8.6,3.9,8.6,8.6S141,386.4,136.2,386.4z
								 M136.2,375c-1.5,0-2.8,1.2-2.8,2.8s1.2,2.8,2.8,2.8s2.8-1.2,2.8-2.8S137.7,375,136.2,375z"/>
						</g>
					</g>
					<g>
						<path class="st1" d="M157.8,444.7c-0.6,0-1.1-0.2-1.6-0.5c-1.3-0.9-1.7-2.7-0.8-4.1c16-24.2,20.9-48.1,14.7-70.9
							c-4.7-17.1-14.2-27.2-14.3-27.3c-1.1-1.2-1.1-3,0.1-4.1c1.2-1.1,3-1.1,4.1,0.1c0.4,0.4,10.6,11.1,15.7,29.5
							c4.7,16.9,5.9,43.9-15.4,76C159.7,444.2,158.7,444.7,157.8,444.7z"/>
						<path class="st1" d="M182.2,443.2c-0.5,0-1.1-0.2-1.6-0.5c-1.4-0.9-1.8-2.7-0.9-4c29.5-45.9,11.9-79.9,2.9-92.4
							c-0.9-1.3-0.6-3.1,0.7-4.1c1.3-0.9,3.1-0.6,4.1,0.7c9.7,13.5,28.7,50.1-2.7,99C184.1,442.8,183.1,443.2,182.2,443.2z"/>
						<path class="st1" d="M208.7,438c-0.5,0-1-0.1-1.5-0.4c-1.4-0.8-1.9-2.6-1.1-4c21.8-37.6,11.8-66.8,3.9-80.9
							c-0.8-1.4-0.3-3.2,1.1-4c1.4-0.8,3.2-0.3,4,1.1c8.5,15.2,19.3,46.6-4,86.7C210.7,437.5,209.7,438,208.7,438z"/>
						<path class="st1" d="M236.2,430.4c-0.4,0-0.9-0.1-1.3-0.3c-1.5-0.7-2.1-2.5-1.4-3.9c13.6-28,9.7-50.7,4.1-64.9
							c-0.6-1.5,0.1-3.2,1.6-3.8c1.5-0.6,3.2,0.1,3.8,1.6c6.1,15.2,10.3,39.7-4.2,69.6C238.3,429.8,237.3,430.4,236.2,430.4z"/>
						<path class="st1" d="M262.2,424.8c-0.4,0-0.8-0.1-1.1-0.2c-1.5-0.6-2.2-2.3-1.6-3.8c7.8-18.8,8.9-37.2,3.3-54.7
							c-0.5-1.5,0.3-3.2,1.9-3.7c1.5-0.5,3.2,0.3,3.7,1.9c6.1,18.9,4.9,38.6-3.4,58.7C264.4,424.1,263.3,424.8,262.2,424.8z"/>
						<path class="st1" d="M191.7,359.9c-0.1,0-0.2,0-0.3,0l-23.5-2.5c-1.6-0.2-2.8-1.6-2.6-3.2s1.6-2.8,3.2-2.6l23.5,2.5
							c1.6,0.2,2.8,1.6,2.6,3.2C194.4,358.8,193.2,359.9,191.7,359.9z"/>
						<path class="st1" d="M199.1,393.7h-23c-1.6,0-2.9-1.3-2.9-2.9s1.3-2.9,2.9-2.9h23c1.6,0,2.9,1.3,2.9,2.9
							S200.7,393.7,199.1,393.7z"/>
						<path class="st1" d="M196.1,375.9c0,0-0.1,0-0.1,0l-21.6-1c-1.6-0.1-2.9-1.4-2.8-3.1s1.4-2.9,3.1-2.8l21.6,1
							c1.6,0.1,2.9,1.4,2.8,3.1C198.9,374.6,197.6,375.9,196.1,375.9z"/>
						<path class="st1" d="M165.9,430.8c-1.5,0-2.8-1.2-2.9-2.7c-0.1-1.6,1.1-3,2.7-3.1l22.6-1.4c1.6-0.1,3,1.1,3.1,2.7
							s-1.1,3-2.7,3.1l-22.6,1.4C166.1,430.8,166,430.8,165.9,430.8z"/>
						<path class="st1" d="M172.1,413.4c-1.6,0-2.8-1.2-2.9-2.8c-0.1-1.6,1.2-3,2.8-3.1l21.6-1c1.6-0.1,3,1.2,3.1,2.8
							s-1.2,3-2.8,3.1l-21.6,1C172.2,413.4,172.2,413.4,172.1,413.4z"/>
						<path class="st1" d="M218.9,370.3c-0.1,0-0.3,0-0.4,0l-23.8-3.5c-1.6-0.2-2.7-1.7-2.5-3.3c0.2-1.6,1.7-2.7,3.3-2.5l23.8,3.5
							c1.6,0.2,2.7,1.7,2.5,3.3C221.6,369.3,220.3,370.3,218.9,370.3z"/>
						<path class="st1" d="M221.7,387.9c-0.1,0-0.2,0-0.4,0l-22.7-2.8c-1.6-0.2-2.7-1.7-2.5-3.3s1.7-2.7,3.3-2.5L222,382
							c1.6,0.2,2.7,1.7,2.5,3.3C224.4,386.8,223.1,387.9,221.7,387.9z"/>
						<path class="st1" d="M194,423.8c-1.4,0-2.7-1-2.9-2.5c-0.2-1.6,0.9-3.1,2.5-3.3l22.9-3.4c1.6-0.2,3.1,0.9,3.3,2.5
							c0.2,1.6-0.9,3.1-2.5,3.3l-22.9,3.4C194.3,423.8,194.1,423.8,194,423.8z"/>
						<path class="st1" d="M198.6,406.3c-1.4,0-2.7-1.1-2.9-2.5c-0.2-1.6,0.9-3.1,2.5-3.3l21.8-2.9c1.6-0.2,3.1,0.9,3.3,2.5
							c0.2,1.6-0.9,3.1-2.5,3.3l-21.8,2.9C198.9,406.3,198.8,406.3,198.6,406.3z"/>
						<path class="st1" d="M243.2,377.9c-0.2,0-0.3,0-0.5,0l-22.5-3.7c-1.6-0.3-2.7-1.8-2.4-3.4s1.8-2.7,3.4-2.4l22.5,3.7
							c1.6,0.3,2.7,1.8,2.4,3.4C245.9,376.9,244.6,377.9,243.2,377.9z"/>
						<path class="st1" d="M214.8,425.4c-1.3,0-2.5-0.9-2.8-2.3c-0.4-1.6,0.6-3.1,2.2-3.5l24.7-5.7c1.6-0.4,3.1,0.6,3.5,2.2
							c0.4,1.6-0.6,3.1-2.2,3.5l-24.7,5.7C215.3,425.3,215.1,425.4,214.8,425.4z"/>
						<path class="st1" d="M244.4,392.8c0,0-0.1,0-0.1,0l-20.3-1c-1.6-0.1-2.9-1.5-2.8-3.1c0.1-1.6,1.4-2.8,3.1-2.8l20.3,1
							c1.6,0.1,2.9,1.5,2.8,3.1C247.2,391.6,245.9,392.8,244.4,392.8z"/>
						<path class="st1" d="M221.1,409.1c-1.5,0-2.7-1.1-2.9-2.6c-0.2-1.6,0.9-3.1,2.5-3.3l23-2.9c1.6-0.2,3.1,0.9,3.3,2.5
							c0.2,1.6-0.9,3.1-2.5,3.3l-23,2.9C221.3,409.1,221.2,409.1,221.1,409.1z"/>
						<path class="st1" d="M267.9,382.7c-0.1,0-0.2,0-0.2,0l-22-1.9c-1.6-0.1-2.8-1.6-2.7-3.2s1.6-2.8,3.2-2.7l22,1.9
							c1.6,0.1,2.8,1.6,2.7,3.2C270.7,381.6,269.4,382.7,267.9,382.7z"/>
						<path class="st1" d="M242.4,415.3c-1.4,0-2.6-1-2.9-2.4c-0.3-1.6,0.8-3.1,2.4-3.4l24.3-4.4c1.6-0.3,3.1,0.8,3.4,2.4
							c0.3,1.6-0.8,3.1-2.4,3.4l-24.3,4.4C242.7,415.3,242.5,415.3,242.4,415.3z"/>
						<path class="st1" d="M267.9,396.5h-22.3c-1.6,0-2.9-1.3-2.9-2.9s1.3-2.9,2.9-2.9h22.3c1.6,0,2.9,1.3,2.9,2.9
							S269.5,396.5,267.9,396.5z"/>
					</g>
					<g>
						<path class="st0" d="M311,382.5l-36.9,2.9l36-8.7c1.6-0.4,3.2,0.6,3.5,2.2s-0.6,3.2-2.2,3.5
							C311.3,382.5,311.1,382.5,311,382.5z"/>
					</g>
					<g>
						<path class="st0" d="M312.3,412.6l-38.7-15.2l40.5,9.6c1.6,0.4,2.5,2,2.2,3.5c-0.4,1.6-2,2.5-3.5,2.2
							C312.6,412.7,312.4,412.7,312.3,412.6z"/>
					</g>
				</g>
			</g>
		</g>
	</g>
</g>
</svg>
