<?xml version="1.0" encoding="utf-8"?>
<!-- Generator: Adobe Illustrator 25.0.0, SVG Export Plug-In . SVG Version: 6.00 Build 0)  -->
<svg version="1.1" id="Calque_1" xmlns="http://www.w3.org/2000/svg" xmlns:xlink="http://www.w3.org/1999/xlink" x="0px" y="0px"
	 viewBox="0 0 342.2 496.8" style="enable-background:new 0 0 342.2 496.8;" xml:space="preserve">
<style type="text/css">
	.st0{fill:#F7F5E8;}
	.st1{fill:#89181A;}
	.st2{clip-path:url(#SVGID_2_);}
	.st3{fill:#E5E3D6;}
</style>
<g>
	<g>
		<path class="st0" d="M69.8,3.8h268.4v423.7c0,35.9-29.1,65.1-65.1,65.1H69.8c-35.9,0-65.1-29.1-65.1-65.1V68.9
			C4.8,33,33.9,3.8,69.8,3.8z"/>
		<path class="st1" d="M69.8,3.4c22.4,0,44.7-0.1,67.1-0.3l16.8-0.2l16.8-0.2L204,2.1l67.1-1.2l33.5-0.5L338.2,0l3.8,0l0,3.8
			c0.4,53.8,0.2,107.7-0.5,161.5c-0.7,53.8-1.7,107.7-1.8,161.5l-0.1,40.4l0.1,40.4l0.1,20.2c0,3.5-0.3,6.9-0.8,10.3
			c-0.5,3.4-1.3,6.8-2.4,10.1c-4.1,13.2-12.5,25-23.6,33.4c-11.1,8.4-24.9,13.2-38.9,13.5l-40.4,0.5l-40.4,0.4l-40.4,0.3l-80.8,0.4
			l-2.5,0l-2.7-0.1c-0.9,0-1.8-0.1-2.7-0.2c-0.9-0.1-1.8-0.1-2.7-0.2c-3.6-0.4-7.1-1.1-10.6-2c-3.5-0.9-6.9-2.2-10.1-3.7
			c-3.3-1.5-6.5-3.2-9.4-5.2c-12-7.9-21.5-19.6-26.7-33.1c-2.6-6.7-4.2-13.9-4.6-21.1C0,427.6,0,424.3,0,421l0-10.1l0-40.4l0.3-80.8
			c0-13.5,0.2-26.9,0.3-40.4C0.6,235.9,0.9,222.4,1,209c0.2-13.5,0.4-26.9,0.7-40.4l0.7-40.4l0.7-40.4c0.1-6.7,0.2-13.4,0.3-20.2
			c0.1-3.4,0.5-6.8,1.1-10.2c0.3-1.7,0.7-3.3,1.1-5c0.5-1.6,1-3.3,1.5-4.9C9.6,41.1,12.9,35,17,29.6c4.1-5.4,9.1-10.2,14.6-14.1
			C42.7,7.6,56.2,3.3,69.8,3.4z M69.8,4.3c-13.4,0-26.7,4.4-37.5,12.2c-5.4,3.9-10.1,8.7-14.1,14c-3.9,5.4-7,11.3-9.1,17.7
			c-1.1,3.1-1.8,6.4-2.3,9.6c-0.5,3.3-0.8,6.6-0.8,9.9c0,6.7,0.2,13.4,0.3,20.2l0.7,40.4l0.7,40.4C8,182.1,8.3,195.5,8.5,209
			c0.2,13.5,0.4,26.9,0.5,40.4c0.1,13.5,0.3,26.9,0.3,40.4l0.3,80.8l0,40.4l0,10.1c0,3.4,0,6.8,0.1,9.8c0.2,3.1,0.6,6.2,1.2,9.3
			c0.6,3.1,1.5,6.1,2.6,9c4.4,11.7,12.5,22,23,29c2.6,1.8,5.4,3.3,8.2,4.6c2.8,1.3,5.8,2.4,8.8,3.3c3,0.9,6.1,1.5,9.2,1.9
			c0.8,0.1,1.6,0.2,2.3,0.2s1.6,0.2,2.3,0.2l2.4,0.1l2.5,0l80.8,0.4l40.4,0.3l40.4,0.4l40.3,0.5c12.9,0,25.9-4.2,36.4-11.8
			c10.6-7.6,18.7-18.6,22.9-31c2.1-6.2,3.2-12.8,3.3-19.3l0.1-20.2l0.1-40.4l-0.1-40.4c-0.2-53.8-1.1-107.7-1.8-161.5
			c-0.7-53.8-1-107.7-0.5-161.5l3.8,3.8l-33.5-0.4l-33.5-0.5L204,5.6L170.4,5l-16.8-0.2l-16.8-0.2C114.5,4.4,92.2,4.3,69.8,4.3z"/>
	</g>
	<g>
		<g>
			<defs>
				<path id="SVGID_1_" d="M4.8,68.9C4.8,33,33.9,3.8,69.8,3.8h268.4v423.7c0,35.9-33.8,60-65.7,61.3L6.8,485.4L4.8,68.9"/>
			</defs>
			<clipPath id="SVGID_2_">
				<use xlink:href="#SVGID_1_"  style="overflow:visible;"/>
			</clipPath>
			<g class="st2">
				<g>
					<path class="st0" d="M245.6,328.6c-9.4,13.4-19.8,33.6-29.4,64.2h-57c-28.2-89.6-62.5-90.4-62.5-90.4s-1.1,2.3-0.4-1.9
						c0.8-4.2-1.1-26.4-1.1-26.4s15.1,0.7,19.2-41.7c0,0,78.3,21.4,145.8,2.5l14.9,24.9L245.6,328.6z"/>
					<path class="st1" d="M218.6,396.1h-61.9l-0.7-2.3c-14.4-45.6-30.2-67.2-40.9-77.3c-8.3-7.8-14.7-9.9-17.2-10.5
						c-1.2,0.7-2.4,0.4-2.7,0.3c-3-1-2.4-4.3-2.1-6.3c0.5-2.6-0.4-16.5-1.1-25.5l-0.3-4.1l3.7,0.5c1-0.1,12.3-2.5,15.8-38.6l0.4-3.9
						l3.8,1c0.8,0.2,78.3,20.9,144,2.5l2.4-0.7l17,28.5l-30.2,70.6l-0.2,0.3c-10.8,15.3-20.6,36.6-29,63.3L218.6,396.1z
						 M161.5,389.5h52.2c8.4-26.1,18.1-47.1,28.9-62.5l28.6-66.9l-12.7-21.3c-58.6,15.5-125,1.7-141.4-2.2
						c-3.6,30-13.1,38-18.5,40.1c0.4,5.9,1.3,17.7,0.9,22.8C108.9,301.8,137.5,314.7,161.5,389.5z M96.6,302.4l0.1-2.7
						c-1.6-0.3-2.7,0.7-3,1.2L96.6,302.4z"/>
				</g>
				<g>
					<g>
						<path class="st0" d="M176.3,81.7c0,0-33.6-45.8-51.8-42.7S94.7,95.4,100,129.8c0,0-23.8,59.7,14.3,103.9
							c0,0,78.3,20.2,145.8,1.3c0,0,50.5-25.2,30.1-100.6c0,0,13-83.6-23.6-93.9c0,0-27.6,4.6-51.1,38.9
							C215.5,79.4,194,72.6,176.3,81.7"/>
						<path class="st1" d="M195.5,246.3c-44.7,0-81.5-9.3-82-9.4c-0.7-0.2-1.2-0.5-1.7-1c-16.2-18.7-23.9-43.3-22.2-70.9
							c1.1-18.2,5.7-32,7.1-35.5c-2.5-16.9-1.1-38.8,3.5-57.5c3.1-12.5,10.3-33.9,23.7-36.1c17.9-3,45.8,31.8,53.4,41.8
							c14.7-6.4,30.7-3.5,36.8-1.9c23.7-33.3,50.8-38.1,51.9-38.3c0.5-0.1,1-0.1,1.4,0.1c37.5,10.6,27.4,88,26.1,96.9
							c10.6,39.7,1.5,65.7-8,80.5c-10.4,16.3-23.5,22.9-24,23.2c-0.2,0.1-0.4,0.2-0.6,0.2C239.4,244.2,216.6,246.3,195.5,246.3z
							 M116.2,230.7c9.3,2.2,81.1,18.3,142.7,1.2c1.8-1,12.6-7.3,21.3-21c12.7-20,14.9-45.4,6.8-75.6c-0.1-0.4-0.1-0.9-0.1-1.4
							c0.1-0.8,12-79.6-20.5-89.9c-4.3,1-27.9,7.7-48.2,37.3c-0.8,1.2-2.4,1.7-3.7,1.3c-0.8-0.3-20.7-6.2-36.8,2.1
							c-1.5,0.8-3.2,0.3-4.2-1c-12.5-17-36.8-43.4-48.6-41.4c-14.7,2.5-27.1,52-21.7,86.9c0.1,0.6,0,1.2-0.2,1.7
							C102.9,131.6,80.8,188.6,116.2,230.7z"/>
					</g>
					<g>
						<path class="st1" d="M112.2,109.6c0,0-10.3-47.3,13-59.8c0,0,22.9,0.8,38.1,30.9C163.3,80.6,135.1,89,112.2,109.6z"/>
						<path class="st1" d="M111.6,111.7l-0.4-1.9c-0.4-2-10.2-48.2,13.5-61.1l0.3-0.1l0.3,0c1,0,23.7,1.1,39.1,31.5l0.6,1.2
							l-1.3,0.4c-0.3,0.1-28.2,8.6-50.7,28.7L111.6,111.7z M125.4,50.8c-19.3,10.8-14.1,47.8-12.5,56.6
							c19.8-17.2,43.1-25.6,48.8-27.5C147.9,53.7,128.1,51.1,125.4,50.8z"/>
					</g>
					<g>
						<path class="st1" d="M278.1,109.6c0,0,10.3-47.3-13-59.8c0,0-22.9,0.8-38.1,30.9C227,80.6,255.2,89,278.1,109.6z"/>
						<path class="st1" d="M278.7,111.7l-1.4-1.3c-22.4-20.2-50.4-28.6-50.7-28.7l-1.3-0.4l0.6-1.2c15.4-30.4,38.1-31.5,39.1-31.5
							l0.3,0l0.3,0.1c23.7,12.8,13.9,59.1,13.5,61.1L278.7,111.7z M228.6,79.9c5.6,1.9,29,10.3,48.8,27.5
							c1.6-8.8,6.8-45.8-12.5-56.6C262.2,51.1,242.4,53.7,228.6,79.9z"/>
					</g>
					<g>
						<g>
							<path class="st1" d="M185,173.2h13.3c0,0,2.2,0.9,0.8,5.3c-0.9,2.6-2.8,7-7.6,6.9c-3.1-0.1-7.7-4.1-7.7-8.3
								C183.8,175.5,183.9,173.6,185,173.2z"/>
							<path class="st1" d="M191.6,186.5c-0.1,0-0.1,0-0.2,0c-3.8-0.1-8.8-4.7-8.8-9.4c0-1.6,0-4.3,2-5l0.2-0.1h13.7l0.2,0.1
								c0.1,0.1,3.2,1.4,1.4,6.7C198.5,184,195.6,186.5,191.6,186.5z M185.3,174.3c-0.1,0.2-0.4,0.7-0.4,2.8c0,3.6,4.2,7.1,6.6,7.2
								c3.1,0.1,5.1-1.9,6.5-6.1c0.8-2.4,0.4-3.5,0-3.9H185.3z"/>
						</g>
						<path class="st1" d="M210.4,210c-2.1,0-4.1-0.4-6-1.1c-6.5-2.5-10.8-8.8-13.3-13.8c-11.1,17.5-29.6,11.9-29.8,11.9
							c-1.8-0.6-2.7-2.4-2.2-4.2c0.5-1.7,2.4-2.7,4.2-2.2c0.7,0.2,17.2,4.9,25.1-14.8c0.5-1.3,1.8-2.2,3.3-2.1
							c1.4,0.1,2.6,1.1,3,2.4c0,0.1,3.8,13.4,12.1,16.6c3.7,1.4,7.8,0.6,12.6-2.5c1.5-1,3.6-0.6,4.6,1c1,1.5,0.6,3.6-1,4.6
							C218.7,208.6,214.4,210,210.4,210z"/>
					</g>
					<path class="st1" d="M156.9,156.4c-0.1-0.1-12.1-12.7-25.2-12.9c-5.5-0.1-10.4,2-14.9,6.3l-4.7-4.8c5.7-5.6,12.3-8.4,19.7-8.2
						c15.9,0.3,29.3,14.4,29.9,15L156.9,156.4l2.4-2.3L156.9,156.4z"/>
					<path class="st1" d="M226.6,156.4l-4.8-4.6c0.6-0.6,14-14.7,29.9-15c7.3-0.1,14,2.6,19.7,8.2l-4.7,4.8
						c-4.5-4.4-9.3-6.4-14.9-6.3C238.8,143.8,226.8,156.3,226.6,156.4z"/>
					<g>
						<g>
							<path class="st1" d="M141.8,180.7c-1.2-0.3-2.7-0.5-4.1-0.7c-1.4-0.2-2.8-0.4-4.3-0.5c-2.9-0.3-5.8-0.5-8.7-0.6
								c-2.9-0.1-5.8-0.2-8.7-0.2c-2.9,0-5.8,0.1-8.8,0.2c2.9-0.7,5.7-1.3,8.6-1.9c2.9-0.6,5.8-1.1,8.7-1.5c2.9-0.4,5.9-0.8,8.8-1.1
								c1.5-0.1,3-0.2,4.5-0.3c1.5-0.1,3-0.1,4.6-0.1L141.8,180.7z"/>
						</g>
						<g>
							<path class="st1" d="M142,192.3c-1.5-0.2-3.3-0.4-4.9-0.4c-1.7-0.1-3.4-0.1-5.1-0.1c-3.4,0-6.8,0.2-10.2,0.6
								c-3.4,0.4-6.8,1-10.2,1.8c-3.4,0.8-6.6,2-9.9,3.3c3-1.8,6.1-3.5,9.4-4.8c3.3-1.4,6.6-2.6,10.1-3.5c3.4-0.9,6.9-1.7,10.5-2.3
								c1.8-0.3,3.6-0.5,5.4-0.7c1.8-0.2,3.6-0.3,5.5-0.4L142,192.3z"/>
						</g>
						<g>
							<path class="st1" d="M143,202.4c-1.2,0.1-2.5,0.3-3.8,0.6c-1.3,0.2-2.6,0.5-3.9,0.8c-2.6,0.6-5.1,1.4-7.6,2.2
								c-2.5,0.9-4.9,1.9-7.3,3.2c-2.4,1.2-4.6,2.7-6.7,4.5c1.7-2.1,3.7-4.1,5.8-5.8c2.1-1.7,4.4-3.4,6.8-4.8
								c2.4-1.4,4.9-2.8,7.4-3.9c1.3-0.6,2.6-1.1,3.9-1.7c1.3-0.5,2.6-1,4.1-1.5L143,202.4z"/>
						</g>
					</g>
					<g>
						<g>
							<path class="st1" d="M241,174.1c1.7,0,3.1,0,4.6,0.1c1.5,0.1,3,0.2,4.5,0.3c3,0.3,5.9,0.6,8.8,1.1c2.9,0.4,5.8,0.9,8.7,1.5
								c2.9,0.6,5.8,1.2,8.6,1.9c-2.9-0.1-5.9-0.2-8.8-0.2c-2.9,0-5.8,0.1-8.7,0.2c-2.9,0.1-5.8,0.3-8.6,0.6
								c-1.4,0.1-2.9,0.3-4.3,0.5c-1.4,0.2-2.9,0.4-4.1,0.7L241,174.1z"/>
						</g>
						<g>
							<path class="st1" d="M241.2,185.7c2,0.1,3.7,0.2,5.5,0.4c1.8,0.2,3.6,0.4,5.4,0.7c3.5,0.6,7,1.3,10.5,2.3
								c3.4,0.9,6.8,2.1,10.1,3.5c3.3,1.3,6.4,3,9.4,4.8c-3.2-1.3-6.5-2.5-9.9-3.3c-3.4-0.8-6.8-1.4-10.2-1.8
								c-3.4-0.4-6.8-0.6-10.2-0.6c-1.7,0-3.4,0-5.1,0.1c-1.7,0.1-3.4,0.2-4.9,0.4L241.2,185.7z"/>
						</g>
						<g>
							<path class="st1" d="M241.9,195.9c1.5,0.5,2.7,0.9,4.1,1.5c1.3,0.5,2.6,1.1,3.9,1.7c2.5,1.2,5,2.5,7.4,3.9
								c2.4,1.4,4.7,3.1,6.8,4.8c2.1,1.8,4.1,3.7,5.8,5.8c-2.1-1.7-4.4-3.2-6.7-4.5c-2.4-1.2-4.8-2.3-7.3-3.2
								c-2.5-0.9-5-1.6-7.6-2.2c-1.3-0.3-2.6-0.6-3.9-0.8c-1.3-0.2-2.6-0.4-3.8-0.6L241.9,195.9z"/>
						</g>
					</g>
				</g>
				<g>
					<path class="st0" d="M99.7,91.7c0,0-17.4-15.7-43.2-8.9c-19.2,3.1-35.2,34.9-5.7,56.6c0,0,30.9,10,49.2-9.7
						C100,129.8,97.7,111.4,99.7,91.7z"/>
					<path class="st1" d="M68.9,145.4c-10.3,0-18.4-2.5-19-2.7l-0.5-0.2l-0.4-0.3c-14-10.3-20.1-24.4-16.7-38.6
						c3-12.2,12.7-22.1,23.7-23.9c27.1-7.1,45.3,9,46.1,9.6l1.3,1.1l-0.2,1.7c-1.9,18.8,0.2,36.5,0.3,37.3l0,0.4v1.3l-0.9,1
						C92.6,142.7,79.5,145.4,68.9,145.4z M52.4,136.5c3.8,1.1,28.7,7.4,44.2-7.9c-0.5-4.9-1.7-19.4-0.3-35.4
						C92,90,77.5,80.7,57.4,86.1l-0.3,0.1c-8.4,1.4-16.1,9.3-18.4,19C37.1,111.8,36.7,124.7,52.4,136.5z"/>
				</g>
				<g>
					<path class="st0" d="M51.6,140c0,0,11.3,12,7.9,38.6c0,0-18.6,82.3,35.7,95.5c0,0,15.1,1.8,19.2-40.5c0,0-36.2-40.8-14.9-103
						C99.5,130.6,86.2,147,51.6,140z"/>
					<path class="st1" d="M95.5,277.5c-0.3,0-0.6,0-0.7,0c-0.1,0-0.3,0-0.4-0.1c-23.7-5.7-37.8-25-40.8-55.6
						c-2.1-21.7,2.1-41.6,2.5-43.7c3.1-24.6-6.9-35.6-7-35.8c-1-1.1-1.2-2.6-0.5-3.9c0.7-1.3,2.1-1.9,3.6-1.6
						c31.8,6.4,44.2-7.7,44.7-8.3c0.6-0.7,1.6-1.2,2.5-1.2c1.1,0,2.1,0.5,2.7,1.4c0.6,0.9,0.8,2,0.4,3c-10.6,31.1-6.2,56.5-0.7,72.4
						c6.1,17.3,14.8,27.3,14.9,27.4c0.6,0.7,0.9,1.6,0.8,2.5c-2,20.7-6.9,34.3-14.4,40.4C99.8,277.1,96.8,277.5,95.5,277.5z
						 M58.3,144.5c3.2,6.5,6.6,17.9,4.4,34.6c0,0.1,0,0.2-0.1,0.3c-0.2,0.8-17.1,78.9,32.9,91.4c1.4-0.1,11.8-2.3,15.3-36.1
						c-2.6-3.2-9.7-13-15.1-28.1c-5.4-15.2-9.8-38.6-2.4-67.2C86.5,143.1,75.1,146.6,58.3,144.5z M59.4,178.6L59.4,178.6L59.4,178.6
						z"/>
				</g>
				<g>
					<path class="st1" d="M82.3,142.1c-0.3-0.4-0.4-0.6-0.5-0.9c-0.2-0.3-0.3-0.6-0.4-0.8c-0.2-0.5-0.5-1.1-0.7-1.6
						c-0.4-1.1-0.7-2.2-0.9-3.2c-0.5-2.2-0.8-4.3-0.8-6.5c0-2.1,0.1-4.3,0.4-6.3c0.1-1,0.4-2.1,0.5-3.1c0.2-1,0.5-2,0.8-3
						c0,1,0,2.1,0.1,3.1c0.1,1,0.1,2,0.3,3c0.2,2,0.7,3.9,1.3,5.8c0.6,1.9,1.3,3.6,2.2,5.3c0.4,0.8,0.9,1.6,1.5,2.3
						c0.3,0.4,0.5,0.7,0.8,1.1c0.1,0.2,0.3,0.3,0.4,0.5c0.1,0.1,0.3,0.3,0.3,0.3L82.3,142.1z"/>
				</g>
				<g>
					<path class="st1" d="M66.5,143.5c-0.5-1.4-0.8-2.5-1.2-3.8c-0.3-1.2-0.6-2.5-0.9-3.8c-0.5-2.5-0.9-5-1.1-7.6
						c-0.2-2.5-0.3-5-0.2-7.5c0.1-2.5,0.4-5,0.9-7.4c0.1,2.5,0.3,4.9,0.8,7.3c0.5,2.4,1,4.7,1.8,7c0.8,2.3,1.6,4.5,2.6,6.7
						c0.5,1.1,1,2.2,1.6,3.2c0.5,1,1.1,2.1,1.7,3L66.5,143.5z"/>
				</g>
				<g>
					<path class="st1" d="M50.5,142.1c-0.3-0.6-0.5-1-0.8-1.5c-0.2-0.5-0.4-0.9-0.6-1.4c-0.4-0.9-0.8-1.9-1.1-2.9
						c-0.6-1.9-1.1-3.9-1.4-5.9c-0.3-2-0.3-4-0.1-6c0.2-2,0.8-3.8,1.5-5.6c-0.2,1.9-0.2,3.8,0.1,5.5c0.4,1.8,0.9,3.5,1.7,5.1
						c0.8,1.6,1.7,3.2,2.7,4.6c0.5,0.7,1,1.4,1.6,2.1c0.3,0.3,0.6,0.6,0.9,1c0.3,0.3,0.6,0.6,0.8,0.8L50.5,142.1z"/>
				</g>
				<g>
					<g>
						<path class="st0" d="M192.6,260.9c0,0,15.4-1.4,16.8,13.2l-31.7,0.4C177.7,274.5,177.1,261.5,192.6,260.9z"/>
						<path class="st1" d="M177.7,275.6c-0.6,0-1.1-0.5-1.1-1.1c0-0.2-0.2-5.6,3.7-9.9c2.8-3,6.9-4.7,12.3-4.9
							c0.9-0.1,16.5-1,18,14.3c0,0.3-0.1,0.6-0.3,0.8c-0.2,0.2-0.5,0.4-0.8,0.4L177.7,275.6C177.7,275.6,177.7,275.6,177.7,275.6z
							 M193.9,262c-0.6,0-1,0-1.1,0c0,0,0,0-0.1,0c-4.8,0.2-8.4,1.6-10.7,4.2c-2.3,2.5-2.9,5.6-3.1,7.2l29.3-0.4
							C206.5,262.9,197.1,262,193.9,262z M192.6,260.9L192.6,260.9L192.6,260.9z"/>
					</g>
					<g>
						<polygon class="st0" points="211.7,273.9 174.2,274.7 174.6,280.2 211.7,278.9 						"/>
						<path class="st1" d="M174.6,281.3c-0.6,0-1.1-0.4-1.1-1l-0.4-5.5c0-0.3,0.1-0.6,0.3-0.8s0.5-0.4,0.8-0.4l37.6-0.8
							c0.3,0,0.6,0.1,0.8,0.3c0.2,0.2,0.3,0.5,0.3,0.8l0,5c0,0.6-0.5,1.1-1.1,1.1L174.6,281.3C174.6,281.3,174.6,281.3,174.6,281.3z
							 M175.4,275.8l0.2,3.2l35-1.2l0-2.8L175.4,275.8z"/>
					</g>
					<g>
						<path class="st0" d="M176.5,280c0,0,2.8,11.1,15.1,13.1v-4.7c0,0-3.8-4.4,2.3-4.6s1.6,4.5,1.6,4.5v4.8c0,0,10.4,0.3,14.5-13.6
							L176.5,280z"/>
						<path class="st1" d="M191.6,294.2c-0.1,0-0.1,0-0.2,0c-12.8-2.1-16-13.8-16-13.9c-0.1-0.3,0-0.7,0.2-0.9
							c0.2-0.3,0.5-0.4,0.9-0.4l33.5-0.5c0.3,0,0.7,0.2,0.9,0.4c0.2,0.3,0.3,0.6,0.2,1c-4.3,14.6-15.5,14.4-15.6,14.4
							c-0.6,0-1.1-0.5-1.1-1.1v-4.8c0-0.3,0.1-0.6,0.3-0.8c0.8-0.9,1.4-2,1.3-2.3c0,0-0.3-0.4-2-0.3c-1.5,0.1-2.2,0.4-2.4,0.7
							c-0.2,0.5,0.4,1.5,0.9,2.1c0.2,0.2,0.3,0.5,0.3,0.7v4.7c0,0.3-0.1,0.6-0.4,0.8C192.1,294.1,191.9,294.2,191.6,294.2z
							 M196.6,288.7v3.2c2.5-0.3,8.6-2.1,11.8-11.3l-30.4,0.5c1.1,2.8,4.4,8.8,12.5,10.7v-3c-0.5-0.7-1.6-2.5-0.9-4.1
							c0.6-1.3,2-1.9,4.3-2c0.8,0,3.3-0.1,4.1,1.6C198.7,285.9,197.3,287.9,196.6,288.7z M176.5,280L176.5,280L176.5,280z"/>
					</g>
					<g>
						<path class="st1" d="M179.8,282.1c1,0.4,1.8,0.9,2.7,1.5c0.8,0.5,1.6,1.1,2.3,1.7c0.7,0.6,1.4,1.2,2.1,2
							c0.7,0.7,1.3,1.4,1.9,2.3c-1.1-0.1-2.1-0.5-3-0.9c-0.9-0.5-1.8-1-2.5-1.7s-1.5-1.4-2.1-2.2C180.7,284,180.2,283.1,179.8,282.1
							z"/>
					</g>
					<g>
						<path class="st1" d="M206.1,281.5c0.1,1-0.3,2-0.7,2.9c-0.5,0.9-1.1,1.7-1.8,2.3c-0.7,0.6-1.6,1.2-2.5,1.6
							c-0.9,0.4-1.9,0.6-2.9,0.6c0.6-0.8,1.3-1.4,1.9-2.1c0.6-0.6,1.3-1.2,1.9-1.8l1.9-1.8C204.6,282.7,205.3,282.1,206.1,281.5z"/>
					</g>
				</g>
				<g>
					<g>
						<path class="st0" d="M96.6,302.4c0,0-14.3-1.4-21,25.5c0,0-4.2,21,7.6,50.7c0,0,7.3,12.1-5,25.9c0,0-12.2,13.7,11.4,21
							c0,0,18.6,6.4,51.8,4c0.6,0,13.8-0.4,18-24.2C160.6,380.8,130.9,309.6,96.6,302.4z"/>
						<path class="st1" d="M126.9,433.4c-23.7,0-37.1-4.3-38.2-4.7c-9.3-2.9-14.9-7.2-16.4-12.8c-2-7.2,3.3-13.2,3.5-13.5
							c10.5-11.8,4.7-21.9,4.6-22l-0.2-0.5c-12-30.3-8-51.7-7.8-52.6l0-0.1c7.3-29.4,23.8-28.1,24.5-28.1l0.3,0.1
							c36.6,7.6,66.7,80.6,65.5,106.3l0,0.4c-4.4,24.8-18.3,26.8-21,27C136.4,433.3,131.5,433.4,126.9,433.4z M86.3,377.2
							c1.2,2.1,7.4,15.1-5.5,29.6c0,0-3.1,3.7-2.1,7.3c0.9,3.3,5.1,6.1,12,8.3l0.1,0c0.2,0.1,18.5,6.1,50.5,3.8
							c1.2-0.1,11.3-1.2,14.9-21.3c0.9-23-27.9-92.2-60-99.3c0,0,0,0,0,0c-1.5,0-11.8,0.8-17.3,22.9
							C78.7,329.9,75.4,349.8,86.3,377.2z"/>
					</g>
					<g>
						<path class="st1" d="M157.3,402.4c-0.4-0.3-0.9-0.7-1.4-1c-0.5-0.4-1-0.7-1.6-1c-1.1-0.7-2.2-1.3-3.3-1.9
							c-2.2-1.2-4.6-2.3-6.9-3.3c-4.8-2-9.7-3.6-14.8-4.8c-5.1-1.1-10.3-2-15.5-2.2c-2.6-0.2-5.2-0.1-7.9-0.2c-1.3,0-2.6,0.1-4,0.2
							l-4,0.3l3.9-0.7c1.3-0.2,2.6-0.5,3.9-0.6c2.6-0.3,5.3-0.6,8-0.7c5.3-0.3,10.7,0,16.1,0.6c5.4,0.6,10.7,1.8,15.9,3.4
							c2.6,0.8,5.2,1.7,7.7,2.7c1.3,0.5,2.5,1.1,3.8,1.7c0.6,0.3,1.2,0.6,1.9,0.9c0.6,0.3,1.2,0.6,1.9,1.1c1.6,1,2.1,3,1.1,4.6
							c-1,1.6-3,2.1-4.6,1.1C157.5,402.5,157.4,402.5,157.3,402.4L157.3,402.4z"/>
					</g>
					<g>
						<path class="st1" d="M91.8,426c0.1-0.6,0.2-1.1,0.2-1.6c0.1-0.5,0.2-1,0.3-1.5c0.2-1,0.5-1.9,0.8-2.8c0.6-1.9,1.2-3.7,2-5.4
							c0.8-1.8,1.7-3.4,2.8-5c1-1.6,2.2-3,3.5-4.4c-0.8,1.7-1.5,3.3-2,5.1c-0.5,1.7-0.9,3.5-1.1,5.2c-0.2,1.8-0.3,3.5-0.3,5.2
							c0,0.9,0,1.7,0.1,2.6c0.1,0.8,0.2,1.8,0.3,2.4c0.4,1.8-0.8,3.6-2.6,4c-1.8,0.4-3.6-0.8-4-2.6c-0.1-0.4-0.1-0.7-0.1-1L91.8,426
							z"/>
					</g>
					<g>
						<path class="st1" d="M112.7,429.2c1-3.8,2-7.7,3-11.6c0.5-1.9,0.9-3.9,1.4-5.8c0.4-2,0.9-3.9,1-5.9c0.5,2,0.5,4,0.7,6
							c0.1,2,0.2,4,0.3,6c0.1,4,0.2,8,0.3,12.1c0,1.9-1.4,3.4-3.3,3.4c-1.9,0-3.4-1.5-3.4-3.3C112.6,429.9,112.7,429.6,112.7,429.2
							L112.7,429.2z"/>
					</g>
					<g>
						<path class="st0" d="M134.8,429.2c0.3-4.4,0.4-8.9,0.4-13.4c0-2.2,0-4.5-0.1-6.7c-0.1-1.1-0.1-2.2-0.3-3.3
							c-0.1-0.6-0.1-1.1-0.3-1.6c-0.1-0.6-0.3-1.1-0.5-1.6c0.2,0.5,0.5,1,0.6,1.6c0.2,0.5,0.3,1.1,0.4,1.6c0.2,1.1,0.4,2.2,0.6,3.3
							c0.3,2.2,0.5,4.5,0.7,6.7c0.3,4.5,0.6,9,0.7,13.5c0,0.6-0.5,1.1-1.1,1.1s-1.1-0.5-1.1-1.1
							C134.8,429.3,134.8,429.2,134.8,429.2L134.8,429.2z"/>
					</g>
				</g>
				<g>
					<g>
						<path class="st0" d="M278.9,302.4c0,0,14.3-1.4,21,25.5c0,0,4.2,21-7.6,50.7c0,0-7.3,12.1,5,25.9c0,0,12.2,13.7-11.4,21
							c0,0-18.6,6.4-51.8,4c-0.6,0-13.8-0.4-18-24.2C214.8,380.8,244.6,309.6,278.9,302.4z"/>
						<path class="st1" d="M248.6,433.4c-4.6,0-9.5-0.2-14.8-0.5c-2.7-0.2-16.7-2.2-21-27l0-0.4c-1.2-25.7,28.9-98.7,65.5-106.3
							l0.3-0.1c0.7-0.1,17.3-1.4,24.5,28.1l0,0.1c0.2,0.9,4.2,22.3-7.8,52.6l-0.2,0.5c-0.2,0.4-5.8,10.3,4.6,22
							c0.2,0.3,5.5,6.3,3.5,13.5c-1.6,5.7-7.1,10-16.4,12.8C285.6,429.1,272.2,433.4,248.6,433.4z M219.3,405
							c3.6,20,13.7,21.2,14.8,21.3c32.2,2.3,50.4-3.8,50.6-3.8l0.1,0c6.9-2.1,11.1-5,12-8.3c1-3.6-2.1-7.3-2.1-7.3
							c-12.8-14.4-6.6-27.4-5.5-29.6c10.9-27.5,7.6-47.3,7.4-48.6c-5.5-22.2-16.1-22.9-17.3-22.9C247.2,312.8,218.4,382.1,219.3,405
							z"/>
					</g>
					<g>
						<path class="st1" d="M214.4,396.9c0.7-0.4,1.3-0.8,1.9-1.1c0.6-0.3,1.2-0.6,1.9-0.9c1.2-0.6,2.5-1.1,3.8-1.7
							c2.6-1,5.1-2,7.7-2.7c5.2-1.6,10.5-2.7,15.9-3.4c5.4-0.6,10.7-0.9,16.1-0.6c2.7,0,5.3,0.4,8,0.7c1.3,0.1,2.6,0.4,3.9,0.6
							l3.9,0.7l-4-0.3c-1.3-0.1-2.6-0.2-4-0.2c-2.6,0-5.3-0.1-7.9,0.2c-5.2,0.2-10.4,1.1-15.5,2.2c-5.1,1.1-10,2.8-14.8,4.8
							c-2.4,1-4.7,2.1-6.9,3.3c-1.1,0.6-2.2,1.2-3.3,1.9c-0.5,0.3-1.1,0.7-1.6,1c-0.5,0.3-1.1,0.7-1.4,1l0,0
							c-1.5,1.1-3.6,0.8-4.7-0.6s-0.8-3.5,0.6-4.7C214.2,397,214.3,397,214.4,396.9z"/>
					</g>
					<g>
						<path class="st1" d="M279.2,425.9c0.1-1.7,0-3.5-0.1-5.3c-0.2-1.8-0.5-3.5-0.9-5.3c-0.4-1.8-1-3.5-1.6-5.1
							c-0.6-1.7-1.5-3.3-2.5-4.8c1.1,1.5,2.2,3,3,4.6c0.9,1.6,1.6,3.3,2.2,5.1c0.6,1.8,1.1,3.5,1.5,5.4c0.4,1.8,0.6,3.6,0.7,5.6
							c0,0.6-0.4,1.1-1.1,1.2c-0.6,0-1.1-0.4-1.2-1.1C279.2,426,279.2,426,279.2,425.9L279.2,425.9z"/>
					</g>
					<g>
						<path class="st1" d="M258.3,429.8c-0.3-4-0.6-8-0.8-11.9c-0.1-2-0.2-4-0.2-6c0-2-0.1-4,0.1-6c-0.1,2,0.2,4,0.4,5.9
							c0.2,2,0.5,3.9,0.8,5.9c0.6,3.9,1.2,7.9,1.9,11.8c0.1,0.6-0.3,1.2-0.9,1.3c-0.6,0.1-1.2-0.3-1.3-0.9
							C258.4,429.9,258.4,429.8,258.3,429.8z"/>
					</g>
					<g>
						<path class="st1" d="M238.5,429.2c0.1-4.5,0.3-9,0.7-13.5c0.2-2.2,0.4-4.5,0.7-6.7c0.2-1.1,0.3-2.2,0.6-3.3
							c0.1-0.5,0.2-1.1,0.4-1.6c0.1-0.5,0.4-1.1,0.6-1.6c-0.2,0.5-0.4,1-0.5,1.6c-0.1,0.5-0.2,1.1-0.3,1.6c-0.2,1.1-0.2,2.2-0.3,3.3
							c-0.1,2.2-0.1,4.5-0.1,6.7c0,4.5,0.2,8.9,0.4,13.4v0c0,0.6-0.4,1.1-1,1.2C239.1,430.4,238.6,429.9,238.5,429.2
							C238.5,429.3,238.5,429.2,238.5,429.2z"/>
					</g>
				</g>
				<g>
					<g>
						<path class="st0" d="M270.1,248.7c0,0,0.4,20.2-26.7,34.3c0,0-16.4,3-13.7,17.5c0,0,6.1,36.2,39.6,35.5
							c0,0,17.9-2.3,36.2-45.4C310.5,273.1,295.2,249.1,270.1,248.7z"/>
						<path class="st1" d="M268.3,339.3c-35,0-41.8-37.8-41.9-38.2c-2.5-13.6,9-19.8,15.9-21.3c24.3-12.9,24.5-30.4,24.5-31.1
							c0-0.9,0.3-1.8,1-2.4c0.6-0.6,1.5-1,2.3-1c0,0,0,0,0,0c12.7,0.2,24.4,6.1,32,16.3c6.8,9.2,9.3,20.3,6.6,29.8
							c0,0.1-0.1,0.3-0.1,0.4c-18.8,44.3-38,47.3-38.8,47.4c-0.1,0-0.2,0-0.3,0C269,339.3,268.6,339.3,268.3,339.3z M273,252.2
							c-1.1,6.9-6.1,22.3-28.1,33.8c-0.3,0.2-0.6,0.3-0.9,0.3c-1.3,0.3-13.1,2.8-11.1,13.7c0.2,1.4,6,32.7,35.4,32.7
							c0.2,0,0.5,0,0.7,0c1.4-0.3,17.1-4.8,33.4-43.1c2-7.4-0.1-16.5-5.6-23.9C291,258,282.5,253.2,273,252.2z M305.5,290.6
							L305.5,290.6L305.5,290.6z M243.4,283L243.4,283L243.4,283z"/>
					</g>
					<g>
						<path class="st1" d="M232.7,302.3l-0.2,0l-0.1,0h0l-0.1,0c-0.1,0-0.1,0-0.1,0c0,0-0.1,0,0,0c0,0,0.1,0,0.2,0.1
							c0.2,0,0.4,0,0.7,0c0.5-0.1,1.1-0.3,1.8-0.6c1.2-0.6,2.5-1.4,3.7-2.3c1.2-0.9,2.4-1.9,3.6-2.9c1.2-1,2.3-2.2,3.4-3.3
							c-0.7,1.4-1.3,2.9-2.1,4.3c-0.7,1.4-1.6,2.8-2.5,4.2c-0.9,1.4-1.9,2.7-3.2,4c-0.7,0.6-1.3,1.3-2.2,1.8
							c-0.4,0.3-0.9,0.6-1.5,0.8c-0.3,0.1-0.6,0.2-1,0.3c-0.2,0-0.4,0.1-0.6,0.1c-0.1,0-0.2,0-0.4,0h-0.2h-0.1l-0.1,0l-0.3,0
							c-1.8-0.3-3-2.1-2.7-3.9S230.9,302,232.7,302.3z"/>
					</g>
					<g>
						<path class="st1" d="M238.4,319.4c0.6-0.2,1.4-0.6,2.2-0.9c0.7-0.4,1.5-0.7,2.2-1.1c1.5-0.8,2.9-1.6,4.2-2.6
							c1.4-1,2.7-2,3.9-3.2c1.2-1.2,2.3-2.5,3.2-4c-0.4,1.7-1,3.4-1.8,5c-0.8,1.6-1.8,3.1-2.9,4.6c-1.1,1.5-2.3,2.8-3.5,4.2
							c-0.6,0.7-1.3,1.3-1.9,2c-0.7,0.6-1.3,1.2-2.1,1.9l-0.1,0.1c-1.5,1.2-3.6,0.9-4.8-0.5s-0.9-3.6,0.5-4.8
							C237.8,319.7,238.1,319.5,238.4,319.4z"/>
					</g>
					<g>
						<path class="st1" d="M253.8,330.4c0.9-0.6,2-1.3,2.9-2c1-0.7,1.9-1.5,2.8-2.3c0.9-0.8,1.8-1.6,2.6-2.6c0.8-0.9,1.5-1.9,2-3.1
							c0.1,1.3-0.1,2.6-0.5,3.9c-0.4,1.3-0.8,2.5-1.4,3.7c-0.5,1.2-1.1,2.4-1.7,3.6c-0.6,1.2-1.3,2.3-2,3.5l-0.1,0.1
							c-1,1.6-3.2,2-4.7,1c-1.6-1-2-3.2-1-4.7C253,331,253.4,330.6,253.8,330.4z"/>
					</g>
				</g>
				<g>
					<g>
						<path class="st1" d="M148.2,402.8c0,0-13.1,5.9-13.7,20.6c0,0,2.9,28.2-12.4,40.4c18.9-24,58.3-21.5,61.2-37l-1.1-37.7
							L148.2,402.8z"/>
						<path class="st0" d="M122,464.9c-0.3,0-0.6-0.1-0.8-0.3c-0.4-0.4-0.4-1-0.1-1.5c1.5-2,3.2-3.8,5-5.4c9.1-13.1,7.2-34,7.1-34.2
							c0-0.1,0-0.1,0-0.2c0.6-15.2,13.8-21.3,14.4-21.6c0,0,0,0,0,0l33.9-13.7c0.3-0.1,0.7-0.1,1,0.1c0.3,0.2,0.5,0.5,0.5,0.9
							l1.1,37.7c0,0.1,0,0.2,0,0.2c-1.5,8-11.2,11.3-23.5,15.5c-10.6,3.6-23.4,8-32.9,16.6c-1.5,2-3.2,3.9-5.2,5.5
							C122.5,464.9,122.3,464.9,122,464.9z M135.5,423.4c0.1,1.5,1.5,17.5-4.5,30.4c9.1-6.6,19.9-10.2,29.1-13.4
							c11.5-3.9,20.7-7.1,22-13.7l-1.1-36l-32.4,13.1C148.1,404.1,136.1,409.9,135.5,423.4z"/>
					</g>
					<g>
						<path class="st1" d="M265.9,391.6c19.4,14.1,20,52.6,38.9,60.6c-25.3-13-43.1-7.9-60.7-22L223,407.8l6.8-24.6L265.9,391.6z"/>
						<path class="st0" d="M304.8,453.3c-0.1,0-0.3,0-0.4-0.1c-0.8-0.3-1.5-0.7-2.2-1.1c-10.7-5.2-20.2-7.2-28.6-9
							c-11-2.3-20.5-4.3-30.2-12.1c0,0-0.1-0.1-0.1-0.1l-21.1-22.4c-0.3-0.3-0.4-0.7-0.3-1.1l6.8-24.6c0.2-0.6,0.7-0.9,1.3-0.8
							l36.1,8.5c0.1,0,0.3,0.1,0.4,0.2c9.6,7,14.7,19.6,19.5,31.8c4.7,11.8,9.1,22.9,17.2,27.6c0.7,0.3,1.4,0.7,2.1,1
							c0.5,0.3,0.7,0.9,0.5,1.5C305.6,453.1,305.2,453.3,304.8,453.3z M244.9,429.4c9.2,7.4,18.5,9.4,29.2,11.6
							c6.7,1.4,14.1,3,22.2,6.1c-5.2-5.9-8.6-14.7-12.3-23.8c-4.7-11.8-9.6-24.1-18.6-30.7l-34.9-8.2l-6.4,23L244.9,429.4z"/>
					</g>
					<g>
						<path class="st1" d="M232.7,417.5c0,0,18.9,8.6,22.2,32.2c1.9,13.6,3.3,39.6,14.9,54.8c-21.4-21.9-30.6-19.4-44.3-30.7
							c-6.6-5.6-17.9-23-21.4-38.5L232.7,417.5z"/>
						<path class="st0" d="M269.8,505.5c-0.3,0-0.6-0.1-0.8-0.3c-13-13.3-21.6-17.6-29.2-21.4c-5-2.5-9.6-4.8-15.1-9.3
							c-6.7-5.6-18.2-23.2-21.8-39.1c-0.1-0.5,0.1-0.9,0.5-1.2l28.7-17.7c0.3-0.2,0.7-0.2,1-0.1c0.2,0.1,19.5,9.1,22.8,33
							c0.3,1.9,0.5,4.1,0.8,6.5c1.6,13.9,4.1,35,13.9,47.7c0.4,0.5,0.3,1.1-0.2,1.5C270.3,505.4,270,505.5,269.8,505.5z
							 M205.3,435.7c3.7,15.2,14.6,31.7,20.9,37.1c5.2,4.3,9.8,6.6,14.6,9c6.4,3.2,13.6,6.8,23.5,15.8c-6.4-12.9-8.3-29.6-9.7-41.4
							c-0.3-2.4-0.5-4.5-0.8-6.4c-2.9-20.5-18-29.5-21-31L205.3,435.7z"/>
					</g>
					<g>
						<g>
							<path class="st1" d="M179.7,357.3c-23.9-9-42.7-34.5-31.7-43.5c0,0,6.6-2.6,10.3,1.1c0,0-4.2-9.6,5.9-14.7
								c10-5.1,15,2.7,15,2.7s-1-7.7,6.9-9.7c7.6-0.7,13.7,6.3,20.6,46.6C206.6,339.8,186.3,340.7,179.7,357.3z"/>
							<path class="st0" d="M179.7,358.4c-0.1,0-0.3,0-0.4-0.1c-17.2-6.5-33.4-22.5-35.5-34.9c-0.7-4.4,0.5-8.1,3.4-10.5
								c0.1-0.1,0.2-0.1,0.3-0.2c0.2-0.1,4.9-1.9,8.9-0.3c-0.5-3.5-0.2-9.5,7.1-13.2c7.1-3.7,12-1.2,14.5,1c0.5-3.1,2.5-6.8,7.6-8.1
								c0.1,0,0.1,0,0.2,0c8.5-0.8,14.8,6.7,21.8,47.5c0.1,0.5-0.2,0.9-0.6,1.2c-0.2,0.1-0.3,0.1-0.5,0.1c-0.5,0-19.7,1.2-25.9,16.7
								C180.6,358.1,180.1,358.4,179.7,358.4z M148.5,314.8c-2.2,1.9-3.1,4.7-2.5,8.3c1.7,10.3,15.3,25.7,33.1,32.8
								c6.1-13.8,21.3-16.5,26.2-17c-6.5-37.6-12.3-45.1-19.1-44.5c-6.7,1.8-6,8.2-5.9,8.5c0.1,0.5-0.2,1-0.7,1.2
								c-0.5,0.2-1,0-1.3-0.4c-0.2-0.3-4.6-6.9-13.6-2.3c-9,4.6-5.5,12.9-5.3,13.3c0.2,0.5,0,1.1-0.4,1.4c-0.4,0.3-1,0.2-1.4-0.1
								C154.6,312.9,149.5,314.5,148.5,314.8z"/>
						</g>
						<g>
							<path class="st3" d="M187.7,345.7c-1.8-2.3-3.3-4.7-4.8-7.1c-1.5-2.4-2.9-4.9-4.2-7.4c-1.4-2.5-2.7-5-3.9-7.5
								s-2.5-5.1-3.7-7.6c1.4,2.5,2.7,4.9,4.1,7.4c1.4,2.4,2.9,4.8,4.4,7.2c1.5,2.4,3.1,4.7,4.7,7c1.6,2.3,3.3,4.5,5.1,6.6l0,0
								c0.4,0.5,0.4,1.2-0.1,1.6C188.9,346.3,188.2,346.2,187.7,345.7C187.7,345.7,187.7,345.7,187.7,345.7z"/>
						</g>
					</g>
					<g>
						<g>
							<path class="st1" d="M197.8,340.2c-0.9-25.5,15.3-52.7,27.9-46c0,0,4.9,5.1,2.9,9.9c0,0,7.2-7.5,15.9-0.3
								c8.6,7.2,3.3,14.9,3.3,14.9s6.7-3.9,11.6,2.6c3.6,6.7-0.5,15.1-35.1,36.9C224.3,358.3,215.7,339.9,197.8,340.2z"/>
							<path class="st0" d="M224.3,359.4c-0.3,0-0.6-0.1-0.8-0.3c-0.1-0.1-0.2-0.2-0.2-0.3c-0.3-0.7-8.6-17.5-25-17.5
								c-0.1,0-0.3,0-0.4,0c-0.6,0-1.1-0.5-1.1-1.1c-0.6-18.4,7.9-39.5,18.5-46.2c3.8-2.4,7.6-2.7,11-0.9c0.1,0.1,0.2,0.1,0.3,0.2
								c0.2,0.2,3.6,3.8,3.7,8.1c3.1-1.9,8.7-3.8,15,1.5c6.1,5.2,5.7,10.6,4.7,13.8c3-0.7,7.2-0.3,10.4,3.9c0,0,0.1,0.1,0.1,0.1
								c4,7.6-0.5,16.3-35.5,38.4C224.7,359.3,224.5,359.4,224.3,359.4z M198.9,339.1c15.2,0.3,23.5,13.4,25.8,17.6
								c32.2-20.5,36.8-28.7,33.7-34.8c-4.2-5.5-9.9-2.4-10.1-2.2c-0.4,0.3-1,0.2-1.4-0.2c-0.3-0.4-0.4-1-0.1-1.4
								c0.2-0.3,4.6-6.9-3.1-13.4c-7.7-6.5-14.1-0.1-14.3,0.2c-0.4,0.4-1,0.4-1.4,0.2c-0.4-0.3-0.6-0.9-0.4-1.3
								c1.5-3.8-1.9-7.9-2.6-8.6c-2.6-1.3-5.5-1-8.6,0.9C207.6,301.5,198.6,320,198.9,339.1z"/>
						</g>
						<g>
							<path class="st3" d="M211.6,343.1c1.5-2.5,3.1-4.8,4.7-7.1c1.7-2.3,3.4-4.5,5.1-6.8s3.6-4.4,5.4-6.5c1.8-2.1,3.7-4.2,5.6-6.3
								c-1.8,2.2-3.5,4.4-5.2,6.7c-1.7,2.2-3.4,4.5-5,6.8s-3.2,4.6-4.6,7c-1.5,2.4-2.9,4.8-4.1,7.2l0,0c-0.3,0.5-0.9,0.8-1.5,0.5
								S211.3,343.7,211.6,343.1C211.6,343.2,211.6,343.1,211.6,343.1z"/>
						</g>
					</g>
					<g>
						<g>
							<path class="st1" d="M220.8,354.3c24.1-8.3,54.9-0.8,52.2,13.2c0,0-3.4,6.2-8.6,5.7c0,0,9.3,4.7,4.9,15.1
								c-4.4,10.4-13.3,7.5-13.3,7.5s5.7,5.3,0.9,11.9c-5.4,5.4-14.6,3.9-45.6-22.7C211.3,384.8,226.3,371.2,220.8,354.3z"/>
							<path class="st0" d="M250.9,411.2c-6.9,0-18.2-6.5-40.4-25.6c-0.1-0.1-0.2-0.3-0.3-0.4c-0.2-0.4,0-0.9,0.3-1.2
								c1.5-1.4,14.3-13.9,9.2-29.4c-0.2-0.6,0.1-1.2,0.7-1.4c17.4-6,40.1-4,49.6,4.2c3.4,2.9,4.8,6.5,4.1,10.2
								c0,0.1-0.1,0.2-0.1,0.3c-0.1,0.2-2.6,4.6-6.7,5.9c2.7,2.4,6.2,7.2,3,14.8c-3.1,7.4-8.5,8.5-11.8,8.5
								c1.6,2.7,2.4,6.8-0.7,11.1c0,0-0.1,0.1-0.1,0.1C255.9,410.1,253.8,411.2,250.9,411.2z M212.9,384.8
								c29,24.8,38.3,26.8,43.1,22.1c4-5.6-0.6-10.1-0.8-10.3c-0.4-0.4-0.5-0.9-0.2-1.4c0.3-0.4,0.8-0.7,1.3-0.5
								c0.3,0.1,8,2.4,11.9-6.9c4-9.3-4-13.5-4.4-13.7c-0.5-0.2-0.7-0.8-0.6-1.3c0.1-0.5,0.6-0.8,1.2-0.8c4,0.4,7-4.1,7.5-5
								c0.5-2.9-0.6-5.6-3.4-8c-7.8-6.8-28.2-10-46.4-4.1C226.3,369.5,216.2,381.4,212.9,384.8z"/>
						</g>
						<g>
							<path class="st3" d="M222,368.3c2.9,0.7,5.5,1.5,8.2,2.4c2.7,0.9,5.3,1.9,8,2.9s5.2,2.1,7.8,3.3c2.6,1.1,5.1,2.3,7.7,3.5
								c-2.6-1-5.2-2.1-7.9-3s-5.3-1.9-8-2.7c-2.7-0.9-5.4-1.7-8.1-2.4c-2.7-0.7-5.4-1.4-8.1-1.9l0,0c-0.6-0.1-1-0.7-0.9-1.3
								S221.4,368.2,222,368.3C222,368.3,222,368.3,222,368.3z"/>
						</g>
					</g>
					<g>
						<g>
							<path class="st1" d="M217.8,379c16.9,19.1,21.8,50.4,7.9,53.2c0,0-7-0.8-8.6-5.8c0,0-0.8,10.4-12,10.3
								c-11.2-0.1-12-9.4-12-9.4s-2.7,7.3-10.6,5.4c-7-2.9-9.2-12,3.4-50.8C185.9,382,204.2,390.6,217.8,379z"/>
							<path class="st0" d="M205.2,437.8c-0.1,0-0.1,0-0.2,0c-8-0.1-11.2-4.5-12.4-7.6c-1.9,2.5-5.3,4.8-10.5,3.6
								c-0.1,0-0.1,0-0.2-0.1c-7.9-3.3-10-12.8,2.8-52.2c0.2-0.6,0.8-0.9,1.3-0.7c0.1,0,0.1,0,0.2,0.1c0.5,0.3,17.9,8.2,30.7-2.8
								c0.5-0.4,1.1-0.3,1.5,0.1c12.2,13.7,19.2,35.4,15.2,47.4c-1.4,4.3-4.1,6.9-7.9,7.7c-0.1,0-0.2,0-0.3,0c-0.3,0-5.2-0.6-8-3.9
								C216.4,432.8,213.3,437.8,205.2,437.8z M193,426.3c0.1,0,0.1,0,0.2,0c0.5,0.1,0.9,0.5,1,1c0,0.3,0.9,8.3,10.9,8.4
								c0,0,0.1,0,0.1,0c9.9,0,10.7-8.9,10.8-9.3c0-0.5,0.5-1,1-1c0.5-0.1,1,0.3,1.2,0.8c1.2,3.9,6.5,4.8,7.5,5
								c2.9-0.7,4.9-2.7,6.1-6.2c3.3-9.9-1.6-29.9-14-44.4c-11.8,9.3-26.7,4.6-31.1,2.9c-11.7,36.3-10,45.7-3.8,48.3
								c6.7,1.6,9.1-4.5,9.2-4.7C192.2,426.5,192.6,426.3,193,426.3z"/>
						</g>
						<g>
							<path class="st3" d="M205.3,385.5c0.5,2.9,0.7,5.7,0.9,8.5c0.2,2.8,0.3,5.6,0.4,8.5c0.1,2.8,0,5.6,0,8.5
								c-0.1,2.8-0.2,5.6-0.3,8.5c-0.1-2.8-0.1-5.6-0.2-8.4c-0.1-2.8-0.3-5.6-0.5-8.4c-0.2-2.8-0.5-5.6-0.9-8.4
								c-0.4-2.8-0.8-5.6-1.4-8.2l0,0c-0.1-0.6,0.2-1.2,0.8-1.3S205.1,384.9,205.3,385.5C205.3,385.5,205.3,385.5,205.3,385.5z"/>
						</g>
					</g>
					<g>
						<g>
							<path class="st1" d="M191,384.2c-14.8,20.8-44.3,32.5-50.1,19.5c0,0-0.8-7,3.8-9.6c0,0-10.3,1.6-12.7-9.4
								c-2.4-11,6.5-13.8,6.5-13.8s-7.7-1-7.6-9.1c1.2-7.5,9.6-11.6,50.3-7.9C181.1,353.7,176.7,373.6,191,384.2z"/>
							<path class="st0" d="M151,410.2c-0.6,0-1.3,0-1.9-0.1c-4.5-0.4-7.7-2.5-9.2-6c0-0.1-0.1-0.2-0.1-0.3c0-0.3-0.6-5.2,2-8.7
								c-3.6-0.4-9.2-2.3-11-10.3c-1.7-7.8,2-11.9,4.7-13.8c-2.8-1.3-5.9-4.1-5.8-9.4c0-0.1,0-0.1,0-0.2c1.4-8.5,10.3-12.6,51.5-8.9
								c0.6,0.1,1,0.6,1,1.2c0,0.1,0,0.2,0,0.2c-0.1,0.6-4.1,19.2,9.5,29.3c0.5,0.4,0.6,1,0.2,1.5C181.8,399,163.5,410.2,151,410.2z
								 M142,403.4c1.3,2.7,3.8,4.2,7.4,4.5c10.3,1,28.8-8.2,40.2-23.5c-11.8-9.5-10.4-25-9.7-29.7c-38-3.4-46.7,0.4-47.9,7
								c0,7,6.4,7.9,6.7,7.9c0.5,0.1,0.9,0.5,1,1c0,0.5-0.3,1-0.8,1.2c-0.3,0.1-7.9,2.7-5.7,12.5c2.2,9.9,11.1,8.6,11.5,8.6
								c0.5-0.1,1,0.2,1.2,0.7s0,1.1-0.5,1.3C141.7,397,141.9,402.4,142,403.4z"/>
						</g>
						<g>
							<path class="st3" d="M181.9,373.4c-2.7,1.1-5.4,2-8.1,2.8c-2.7,0.8-5.4,1.5-8.2,2.2c-2.7,0.7-5.5,1.3-8.3,1.9
								c-2.8,0.6-5.5,1.1-8.3,1.6c2.7-0.7,5.5-1.4,8.2-2.1c2.7-0.8,5.4-1.5,8.1-2.4c2.7-0.9,5.3-1.8,8-2.7c2.6-1,5.2-2,7.7-3.2l0,0
								c0.6-0.3,1.2,0,1.5,0.5S182.5,373.1,181.9,373.4C182,373.4,181.9,373.4,181.9,373.4z"/>
						</g>
					</g>
					<g>
						<circle class="st1" cx="201.7" cy="362.8" r="22.7"/>
						<path class="st0" d="M201.7,386.6c-13.1,0-23.8-10.7-23.8-23.8s10.7-23.8,23.8-23.8c13.1,0,23.8,10.7,23.8,23.8
							S214.8,386.6,201.7,386.6z M201.7,341.2c-11.9,0-21.6,9.7-21.6,21.6c0,11.9,9.7,21.6,21.6,21.6s21.6-9.7,21.6-21.6
							C223.3,350.9,213.6,341.2,201.7,341.2z"/>
					</g>
					<circle class="st0" cx="201.8" cy="363.1" r="17.2"/>
					<path class="st0" d="M263.3,497.6c-0.4,0-0.7-0.2-0.9-0.5l-43.3-66c-0.3-0.5-0.2-1.2,0.3-1.5c0.5-0.3,1.2-0.2,1.5,0.3l43.3,66
						c0.3,0.5,0.2,1.2-0.3,1.5C263.8,497.6,263.5,497.6,263.3,497.6z"/>
					<path class="st0" d="M295.5,447.7c-0.3,0-0.5-0.1-0.7-0.3l-41.6-36.9c-0.5-0.4-0.5-1.1-0.1-1.6c0.4-0.5,1.1-0.5,1.6-0.1
						l41.6,36.9c0.5,0.4,0.5,1.1,0.1,1.6C296.1,447.6,295.8,447.7,295.5,447.7z"/>
					<path class="st0" d="M129.3,457.3c-0.2,0-0.5-0.1-0.7-0.2c-0.5-0.4-0.6-1.1-0.2-1.6l42.3-54.3c0.4-0.5,1.1-0.6,1.6-0.2
						c0.5,0.4,0.6,1.1,0.2,1.6l-42.3,54.3C129.9,457.2,129.6,457.3,129.3,457.3z"/>
				</g>
				<g>
					<path class="st0" d="M114.3,232.5l-2.5,17.7c0,0,92.4,21,159.4-1.1l-0.6-17.8C270.6,231.3,204,257.5,114.3,232.5z"/>
					<path class="st1" d="M197.5,262.6c-45.2,0-83.9-8.6-86.4-9.2l-3-0.7l3.4-24.5l3.7,1c86.5,24.2,151.5,0,154.2-1l1.6-0.6l2.9,1.9
						l0.7,21.9l-2.4,0.8C248.6,260.1,222.1,262.6,197.5,262.6z M115.6,247.6c16.1,3.3,93.8,17.3,152.2-0.9l-0.4-10.8
						c-16.2,5.2-75.2,20.7-150.4,0.7L115.6,247.6z"/>
				</g>
			</g>
		</g>
	</g>
</g>
</svg>
