<?xml version="1.0" encoding="utf-8"?>
<!-- Generator: Adobe Illustrator 25.0.0, SVG Export Plug-In . SVG Version: 6.00 Build 0)  -->
<svg version="1.1" id="Calque_1" xmlns="http://www.w3.org/2000/svg" xmlns:xlink="http://www.w3.org/1999/xlink" x="0px" y="0px"
	 viewBox="0 0 342.1 496.8" style="enable-background:new 0 0 342.1 496.8;" xml:space="preserve">
<style type="text/css">
	.st0{fill:#F7F5E8;}
	.st1{fill:#89181A;}
	.st2{clip-path:url(#SVGID_2_);}
</style>
<g>
	<g>
		<path class="st0" d="M69.8,3.8h268.4v423.7c0,35.9-29.1,65.1-65.1,65.1H69.8c-35.9,0-65.1-29.1-65.1-65.1V68.9
			C4.8,32.9,33.9,3.8,69.8,3.8z"/>
		<path class="st1" d="M69.8,3.4c22.4,0,44.7-0.1,67.1-0.3l16.8-0.2l16.8-0.2L204,2.1l67.1-1.2l33.5-0.5L338.2,0l3.8,0l0,3.8
			c0.4,53.8,0.2,107.7-0.5,161.5c-0.7,53.8-1.7,107.7-1.8,161.5l-0.1,40.4l0.1,40.4l0.1,20.2c0,3.5-0.3,6.9-0.8,10.3
			c-0.5,3.4-1.3,6.8-2.4,10.1c-4.1,13.2-12.5,25-23.6,33.4c-11.1,8.4-24.9,13.2-38.9,13.5l-40.4,0.5l-40.4,0.4l-40.4,0.3l-80.8,0.4
			l-2.5,0l-2.7-0.1c-0.9,0-1.8-0.1-2.7-0.2c-0.9-0.1-1.8-0.1-2.7-0.2c-3.6-0.4-7.1-1.1-10.6-2c-3.5-0.9-6.9-2.2-10.1-3.7
			s-6.5-3.2-9.4-5.2c-12-7.9-21.5-19.6-26.7-33.1c-2.6-6.7-4.2-13.9-4.6-21.1C0,427.6,0,424.3,0,421l0-10.1l0-40.4l0.3-80.8
			c0-13.5,0.2-26.9,0.3-40.4C0.6,235.9,0.9,222.4,1,209c0.1-13.5,0.4-26.9,0.7-40.4l0.7-40.4l0.7-40.4c0.1-6.7,0.2-13.4,0.3-20.2
			c0.1-3.4,0.5-6.8,1.1-10.2c0.3-1.7,0.7-3.3,1.1-5c0.5-1.6,0.9-3.3,1.5-4.9C9.6,41.1,12.9,35,17,29.6c4.1-5.4,9.1-10.2,14.6-14.1
			C42.7,7.6,56.2,3.3,69.8,3.4z M69.8,4.3c-13.4,0-26.7,4.3-37.5,12.2c-5.4,3.9-10.1,8.7-14.1,14c-3.9,5.4-7,11.3-9.1,17.6
			c-1.1,3.1-1.8,6.4-2.3,9.6C6.3,61.1,6,64.4,6,67.7c0,6.7,0.2,13.4,0.3,20.2L7,128.2l0.7,40.4C8,182.1,8.3,195.5,8.5,209
			c0.2,13.5,0.4,26.9,0.5,40.4c0.1,13.5,0.3,26.9,0.3,40.4l0.3,80.8l0,40.4l0,10.1c0,3.4,0,6.8,0.1,9.8c0.2,3.1,0.6,6.2,1.2,9.3
			c0.6,3.1,1.5,6.1,2.6,9c4.4,11.7,12.5,22,23,29c2.6,1.8,5.4,3.3,8.2,4.6c2.8,1.3,5.8,2.4,8.8,3.3c3,0.9,6.1,1.5,9.2,1.9
			c0.8,0.1,1.6,0.2,2.3,0.2s1.6,0.2,2.3,0.2l2.4,0.1l2.5,0l80.8,0.4l40.4,0.3l40.4,0.4l40.3,0.5c12.9,0,25.9-4.2,36.4-11.8
			c10.6-7.6,18.7-18.6,22.9-31c2.1-6.2,3.2-12.8,3.3-19.3l0.1-20.2l0.1-40.4l-0.1-40.4c-0.2-53.8-1.1-107.7-1.8-161.5
			c-0.7-53.8-1-107.7-0.5-161.5l3.8,3.8l-33.5-0.4l-33.5-0.5L204,5.6L170.4,5l-16.8-0.2l-16.8-0.2C114.5,4.3,92.2,4.3,69.8,4.3z"/>
	</g>
	<g>
		<g>
			<defs>
				<path id="SVGID_1_" d="M3.8,67.2C3.8,31.2,33,2.1,68.9,2.1h268.4v423.7c0,35.9-29.1,65.1-65.1,65.1H3.8L3.8,67.2"/>
			</defs>
			<clipPath id="SVGID_2_">
				<use xlink:href="#SVGID_1_"  style="overflow:visible;"/>
			</clipPath>
			<g class="st2">
				<g>
					<circle class="st1" cx="250.7" cy="124.8" r="103.3"/>
					<path class="st1" d="M250.7,231.4c-58.8,0-106.6-47.8-106.6-106.6S191.9,18.2,250.7,18.2S357.3,66,357.3,124.8
						S309.5,231.4,250.7,231.4z M250.7,24.8c-55.1,0-99.9,44.8-99.9,99.9s44.8,99.9,99.9,99.9s99.9-44.8,99.9-99.9
						S305.8,24.8,250.7,24.8z"/>
				</g>
				<g>
					<g>
						<polygon class="st0" points="91.2,215.3 91.2,405.4 117.4,405.4 117.4,215 						"/>
						<path class="st1" d="M120.7,408.7H87.9V212.1l32.8-0.4V408.7z M94.5,402.1h19.5V218.4l-19.6,0.2
							C94.5,218.6,94.5,402.1,94.5,402.1z"/>
					</g>
					<g>
						<polygon class="st0" points="68.2,434.4 68.2,409.1 141.3,409.1 141.3,434 						"/>
						<path class="st1" d="M64.9,437.7v-32h79.7v31.6L64.9,437.7z M71.5,412.4V431l66.5-0.3v-18.3H71.5z"/>
					</g>
					<g>
						<path class="st0" d="M170.4,177.2l115.8,0.9l25.6-66.4c0,0-45.1,37.2-141.3,37.2S29,111.8,29,111.8l25.6,66.4L170.4,177.2"/>
						<path class="st1" d="M288.4,181.5l-118-1l-118,1l-31-80.4l9.8,8.1c0.4,0.4,45.5,36.4,139.2,36.4c94,0,138.8-36,139.2-36.4
							l9.8-8.1L288.4,181.5z M36,120.6l20.9,54.3l113.5-0.9h0l113.5,0.9l20.9-54.3c-17.6,10.8-61.3,31.7-134.4,31.7
							C97.3,152.3,53.7,131.3,36,120.6z"/>
					</g>
					<g>
						<polygon class="st0" points="170.4,180.6 267.3,180.6 267.3,214.1 170.4,214.1 73.5,214.1 73.5,180.6 						"/>
						<path class="st1" d="M270.6,217.4H70.2v-40.2h200.4L270.6,217.4L270.6,217.4z M76.8,210.8h187.1v-26.9H76.8V210.8z"/>
					</g>
					<g>
						<polygon class="st0" points="249.6,215.3 249.6,405.4 223.4,405.4 223.4,215 						"/>
						<path class="st1" d="M252.9,408.7h-32.8V211.7l32.9,0.4L252.9,408.7L252.9,408.7z M226.7,402.1h19.6V218.6l-19.6-0.2V402.1z"
							/>
					</g>
					<g>
						<polygon class="st0" points="171,271.3 293.5,271.3 293.5,297.8 171,297.8 169.8,297.8 47.3,297.8 47.3,271.3 169.8,271.3 
													"/>
						<path class="st1" d="M296.8,301.2H44V268h252.8V301.2z M50.7,294.5h239.5v-19.9H50.7V294.5z"/>
					</g>
					<g>
						<polygon class="st1" points="171.5,214.1 184.7,214.1 184.7,240.3 171,240.3 169.8,240.3 156.1,240.3 156.1,214.1 
							169.3,214.1 						"/>
						<path class="st1" d="M188,243.6h-35.3v-32.9H188V243.6z M159.4,237h22v-19.6h-22V237z"/>
					</g>
					<g>
						<polygon class="st1" points="171,435.8 317.2,435.8 317.2,450.5 171,450.5 169.8,450.5 23.6,450.5 23.6,435.8 169.8,435.8 
													"/>
						<path class="st1" d="M320.5,453.8H20.2v-21.4h300.3V453.8z M26.9,447.2h287v-8.1h-287V447.2z"/>
					</g>
					<g>
						<polygon class="st0" points="272.6,434.4 272.6,409.1 199.5,409.1 199.5,434 						"/>
						<path class="st1" d="M275.9,437.7l-79.8-0.3v-31.6h79.8V437.7z M202.8,430.7l66.5,0.3v-18.6h-66.5V430.7z"/>
					</g>
				</g>
			</g>
		</g>
	</g>
</g>
</svg>
