<?xml version="1.0" encoding="utf-8"?>
<!-- Generator: Adobe Illustrator 25.0.0, SVG Export Plug-In . SVG Version: 6.00 Build 0)  -->
<svg version="1.1" id="Calque_1" xmlns="http://www.w3.org/2000/svg" xmlns:xlink="http://www.w3.org/1999/xlink" x="0px" y="0px"
	 viewBox="0 0 342.2 496.8" style="enable-background:new 0 0 342.2 496.8;" xml:space="preserve">
<style type="text/css">
	.st0{fill:#F7F5E8;}
	.st1{fill:#89181A;}
	.st2{clip-path:url(#SVGID_2_);}
	.st3{fill:#671318;}
</style>
<g>
	<g>
		<path class="st0" d="M69.8,3.8h268.4v423.7c0,35.9-29.1,65.1-65.1,65.1H69.8c-35.9,0-65.1-29.1-65.1-65.1V68.9
			C4.7,33,33.9,3.8,69.8,3.8z"/>
		<path class="st1" d="M69.8,3.4c22.4,0,44.7-0.1,67.1-0.3l16.8-0.2l16.8-0.2L204,2.1l67.1-1.2l33.5-0.5L338.2,0l3.8,0l0,3.8
			c0.4,53.8,0.2,107.7-0.5,161.5c-0.7,53.8-1.7,107.7-1.8,161.5l-0.1,40.4l0.1,40.4l0.1,20.2c0,3.5-0.3,6.9-0.8,10.3
			c-0.5,3.4-1.3,6.8-2.4,10.1c-4.1,13.2-12.5,25-23.6,33.4c-11.1,8.4-24.9,13.2-38.9,13.5l-40.4,0.5l-40.4,0.4l-40.4,0.3l-80.8,0.4
			l-2.5,0l-2.7-0.1c-0.9,0-1.8-0.1-2.7-0.2c-0.9-0.1-1.8-0.1-2.7-0.2c-3.6-0.4-7.1-1.1-10.6-2c-3.5-0.9-6.9-2.2-10.1-3.7
			s-6.4-3.2-9.4-5.2c-12.1-7.9-21.5-19.6-26.7-33.1c-2.6-6.7-4.1-13.9-4.6-21.1C0,427.6,0,424.3,0,421l0-10.1l0-40.4l0.3-80.8
			c0-13.5,0.2-26.9,0.3-40.4C0.6,235.9,0.8,222.4,1,209c0.1-13.5,0.4-26.9,0.7-40.4l0.7-40.4l0.7-40.4c0.1-6.7,0.2-13.4,0.3-20.2
			c0.1-3.4,0.5-6.8,1.1-10.2c0.3-1.7,0.7-3.3,1.1-5c0.5-1.6,0.9-3.3,1.5-4.9C9.6,41.1,12.9,35,17,29.6c4.1-5.4,9.1-10.2,14.6-14.1
			C42.7,7.6,56.2,3.3,69.8,3.4z M69.8,4.3c-13.4,0-26.7,4.4-37.5,12.2c-5.4,3.9-10.1,8.7-14.1,14c-3.9,5.4-7,11.3-9.1,17.7
			c-1.1,3.1-1.8,6.4-2.3,9.6C6.3,61.1,6,64.4,6,67.7c0,6.7,0.2,13.5,0.3,20.2l0.7,40.4l0.7,40.4C8,182.1,8.3,195.5,8.5,209
			c0.2,13.5,0.4,26.9,0.5,40.4c0.1,13.5,0.3,26.9,0.3,40.4l0.3,80.8l0,40.4l0,10.1c0,3.4,0,6.8,0.1,9.8c0.2,3.1,0.6,6.2,1.2,9.3
			c0.6,3.1,1.5,6.1,2.6,9c4.4,11.7,12.5,22,23,29c2.6,1.8,5.4,3.3,8.2,4.6c2.8,1.3,5.8,2.4,8.8,3.3c3,0.9,6.1,1.5,9.2,1.9
			c0.8,0.1,1.6,0.2,2.3,0.2s1.6,0.2,2.4,0.2l2.4,0.1l2.5,0l80.8,0.4l40.4,0.3l40.4,0.4l40.3,0.5c12.9,0,25.9-4.2,36.4-11.8
			c10.6-7.6,18.7-18.6,22.9-31c2.1-6.2,3.2-12.8,3.3-19.3l0.1-20.2l0.1-40.4l-0.1-40.4c-0.2-53.8-1.1-107.7-1.8-161.5
			c-0.7-53.8-1-107.7-0.5-161.5l3.8,3.8l-33.5-0.4L271,6.8L204,5.6L170.4,5l-16.8-0.2l-16.8-0.2C114.5,4.4,92.2,4.3,69.8,4.3z"/>
	</g>
	<g>
		<g>
			<defs>
				<path id="SVGID_1_" d="M10.2,71.2c0-35.9,23.7-67.3,59.6-67.3h268.4l-2,423.5c0,35.9-31.8,60.1-63.6,61.4L9.6,487.4L10.2,71.2"
					/>
			</defs>
			<clipPath id="SVGID_2_">
				<use xlink:href="#SVGID_1_"  style="overflow:visible;"/>
			</clipPath>
			<g class="st2">
				<path class="st1" d="M300.7,211.1c0,25.6-7.6,49.5-20.6,69.5l-217.7-6.7c-10.5-18.5-16.5-40-16.5-62.8
					c0-70.4,57-127.4,127.4-127.4S300.7,140.8,300.7,211.1z"/>
				<g>
					<path class="st0" d="M423.6,380.1c0,0-166.9-136.4-226.9-219.8h-49.8C86.9,243.6-80,380.1-80,380.1H423.6z"/>
					<path class="st3" d="M423.6,383.4H-80c-1.4,0-2.7-0.9-3.1-2.2c-0.5-1.3-0.1-2.8,1-3.7c1.7-1.4,167.3-137.1,226.3-219.2
						c0.6-0.9,1.6-1.4,2.7-1.4h49.8c1.1,0,2.1,0.5,2.7,1.4c59,82,224.7,217.8,226.3,219.2c1.1,0.9,1.5,2.4,1,3.7
						C426.3,382.5,425,383.4,423.6,383.4z M-70.8,376.8h485.2C382,349.8,248.2,236.6,195,163.6h-46.4
						C95.4,236.6-38.4,349.8-70.8,376.8z"/>
				</g>
				<g>
					<path class="st1" d="M254.3,227.7c0,0-32.9-33.2-57.6-67.4h-49.8c-14.2,19.7-44.4,52.2-59.3,67.8c0,0,10.5,7.8,35.2-3.4
						s25.1,38.3,36.9,38.3s26.1-41,40.3-43.7C210.9,217.2,220.1,252.8,254.3,227.7z"/>
					<path class="st3" d="M159.7,266.3c-6.9,0-10.1-8.4-13.9-18.2c-3.3-8.7-7.1-18.7-13.2-21.2c-2.4-1-5.2-0.8-8.5,0.7
						c-26.2,11.8-38.1,3.4-38.6,3l-3-2.2l2.6-2.7c19.3-20.1,46.4-49.9,59-67.4l1-1.4h53.2l1,1.4c24.3,33.6,56.9,66.7,57.3,67
						l2.7,2.7l-3.1,2.3c-25.6,18.8-39.5,5.5-47.8-2.5c-2.9-2.8-6-5.7-7.7-5.4c-5.8,1.1-12.9,12.1-19.1,21.8
						C174,256.1,167.4,266.3,159.7,266.3z M129.6,219.7c2,0,3.8,0.4,5.6,1.1c8.7,3.6,13,14.9,16.8,24.9c2.1,5.5,5.3,13.9,7.6,13.9
						c4,0,10.8-10.5,16.2-18.9c7.7-11.9,14.9-23.1,23.5-24.8c5.1-1,9.2,3,13.6,7.1c8.1,7.7,17.2,16.5,36.2,4.1
						c-8.3-8.7-33.9-35.8-54.2-63.6h-46.4c-12.4,16.9-36.5,43.6-55.2,63.2c4.7,1,13.7,1.3,28-5.1C124.3,220.3,127,219.7,129.6,219.7
						z"/>
				</g>
				<g>
					<path class="st1" d="M141.5,399.1H-0.9c-1.8,0-3.3-1.5-3.3-3.3s1.5-3.3,3.3-3.3h142.3c1.8,0,3.3,1.5,3.3,3.3
						S143.3,399.1,141.5,399.1z"/>
					<path class="st1" d="M172.6,399.1h-13.5c-1.8,0-3.3-1.5-3.3-3.3s1.5-3.3,3.3-3.3h13.5c1.8,0,3.3,1.5,3.3,3.3
						S174.5,399.1,172.6,399.1z"/>
					<path class="st1" d="M333.9,399.1H191.6c-1.8,0-3.3-1.5-3.3-3.3s1.5-3.3,3.3-3.3h142.3c1.8,0,3.3,1.5,3.3,3.3
						S335.8,399.1,333.9,399.1z"/>
				</g>
				<g>
					<path class="st1" d="M77.1,418.7H-28.6c-1.8,0-3.3-1.5-3.3-3.3s1.5-3.3,3.3-3.3H77.1c1.8,0,3.3,1.5,3.3,3.3
						S78.9,418.7,77.1,418.7z"/>
					<path class="st1" d="M262.1,418.7h-166c-1.8,0-3.3-1.5-3.3-3.3s1.5-3.3,3.3-3.3h166c1.8,0,3.3,1.5,3.3,3.3
						S263.9,418.7,262.1,418.7z"/>
					<path class="st1" d="M311.6,418.7h-29.8c-1.8,0-3.3-1.5-3.3-3.3s1.5-3.3,3.3-3.3h29.8c1.8,0,3.3,1.5,3.3,3.3
						S313.4,418.7,311.6,418.7z"/>
					<path class="st1" d="M365.8,418.7h-38.6c-1.8,0-3.3-1.5-3.3-3.3s1.5-3.3,3.3-3.3h38.6c1.8,0,3.3,1.5,3.3,3.3
						S367.6,418.7,365.8,418.7z"/>
				</g>
				<path class="st1" d="M58.4,357.8H28.5c-1.8,0-3.3-1.5-3.3-3.3s1.5-3.3,3.3-3.3h29.8c1.8,0,3.3,1.5,3.3,3.3
					S60.2,357.8,58.4,357.8z"/>
				<path class="st1" d="M112.6,357.8H74c-1.8,0-3.3-1.5-3.3-3.3s1.5-3.3,3.3-3.3h38.6c1.8,0,3.3,1.5,3.3,3.3
					S114.4,357.8,112.6,357.8z"/>
			</g>
		</g>
	</g>
</g>
</svg>
